<?xml version="1.0" encoding="iso-8859-1"?>
<!-- Generator: Adobe Illustrator 19.0.0, SVG Export Plug-In . SVG Version: 6.00 Build 0)  -->
<svg version="1.1" id="Layer_1" xmlns="http://www.w3.org/2000/svg" xmlns:xlink="http://www.w3.org/1999/xlink" x="0px" y="0px"
	 viewBox="0 0 496.2 496.2" style="enable-background:new 0 0 496.2 496.2;" xml:space="preserve">
<path style="fill:#D8DBBA;" d="M0,248.1C0,111.1,111.1,0,248.1,0s248.1,111.1,248.1,248.1S385.1,496.2,248.1,496.2S0,385.1,0,248.1z
	"/>
<rect x="241.8" y="174.8" style="fill:#25A56E;" width="131.3" height="240.9"/>
<g>
	<rect x="182.9" y="121.3" style="fill:#37D18F;" width="124.7" height="236.8"/>
	<path style="fill:#37D18F;" d="M247.7,175.1c-3-0.1-5.9-0.3-8.8-0.8c2.1,0.2,4.2,0.3,6.4,0.3c3.5,0,7-0.3,10.3-0.9
		c12.5-1.3,24.2-6.3,33.7-14.5c11.5-10,18-23.3,18.4-37.4c0.4-13.4-4.9-26.6-14.8-37c-11.5-12.1-28-19.2-45.2-19.6
		c-16.7-0.4-32.6,5.3-44.9,16.1c-12.3,10.8-19.4,25.1-19.8,40.3c-0.4,14.4,5.3,28.5,15.9,39.7c12.3,12.9,30.1,20.6,48.6,21
		c0,0,0,0,0.1,0L247.7,175.1z"/>
</g>
<ellipse style="fill:#25A56E;" cx="247" cy="357.3" rx="60.6" ry="54.4"/>
<g transform="translate(0 -332.36)">
	<path style="fill:#29C183;" d="M373.1,751.1H248c0,0,0,0-0.1,0c-18.7-0.4-36.6-8.1-49.1-21.2c-10.8-11.3-16.5-25.5-16.1-40.1
		c0.4-15.4,7.5-29.8,20-40.7c12.4-10.8,28.6-16.6,45.4-16.2c17.4,0.4,34.1,7.6,45.7,19.8c10,10.5,15.3,23.8,14.9,37.4
		c-0.4,14.3-7,27.7-18.6,37.8c-11.2,9.7-25.6,15-40.6,15c-0.5,0-1,0-1.5,0c-16.2-0.4-31.6-7.1-42.3-18.4
		c-9.2-9.8-14.1-22.1-13.7-34.6c0.4-13.2,6.5-25.6,17.3-34.9c10.7-9.3,24.5-14.2,39-13.8c14.9,0.4,29.1,6.6,38.9,17.1
		c8.5,9,12.9,20.3,12.5,31.9c-0.4,12.1-6.1,23.5-15.9,32s-22.5,13-35.7,12.6c-13.6-0.4-26.6-6.1-35.5-15.7
		c-7.7-8.2-11.7-18.6-11.4-29.2c0.4-11,5.6-21.4,14.6-29.1c9-7.7,20.5-11.7,32.5-11.4c12.3,0.4,24.1,5.6,32.1,14.3
		c7,7.5,10.6,16.9,10.2,26.4c-0.4,9.8-5.2,19.4-13.2,26.2c-8.1,6.9-18.5,10.5-29.3,10.1c-11.1-0.4-21.5-5.1-28.8-13
		c-6.2-6.7-9.4-15.1-9-23.7c0.4-8.7,4.7-17.2,11.9-23.3s16.5-9.3,26.1-8.9c9.8,0.4,19,4.6,25.4,11.6c5.4,6,8.2,13.4,7.8,21
		c-0.8,15.6-15.3,28.1-31.9,28.1c-0.5,0-1,0-1.6,0c-8.5-0.4-16.5-4.1-22-10.2c-4.7-5.2-7-11.7-6.6-18.3
		c0.9-13.8,14.1-24.8,28.9-23.9c7.2,0.4,14,3.7,18.6,8.9c3.9,4.5,5.8,10,5.4,15.5c-0.9,11.6-12.1,20.6-24.4,19.8
		c-6-0.4-11.5-3.2-15.2-7.6c-3.1-3.7-4.6-8.3-4.1-12.8c0.2-2,2-3.4,3.9-3.2c2,0.2,3.4,2,3.2,3.9c-0.3,3.4,1.2,5.9,2.5,7.5
		c2.4,2.9,6.2,4.7,10.2,5c8.4,0.6,16.1-5.4,16.7-13.1c0.3-3.6-1-7.3-3.6-10.2c-3.3-3.8-8.2-6.1-13.6-6.4
		c-10.9-0.6-20.7,7.2-21.3,17.2c-0.3,4.6,1.4,9.2,4.8,13c4.2,4.7,10.3,7.5,16.9,7.8c13.4,0.6,25.3-9.1,25.9-21.3
		c0.3-5.6-1.8-11.2-5.9-15.7c-5-5.5-12.5-8.9-20.3-9.2c-15.9-0.6-29.8,11-30.5,25.4c-0.3,6.6,2.2,13.2,7.1,18.5
		c5.9,6.4,14.6,10.3,23.7,10.6c18.3,0.6,34.4-12.8,35.1-29.4c0.3-7.6-2.6-15.2-8.2-21.2c-6.8-7.3-16.7-11.7-27.1-12
		c-20.8-0.7-39,14.7-39.7,33.5c-0.3,8.6,3,17.1,9.4,24c7.7,8.2,18.8,13.1,30.5,13.4c23.3,0.7,43.5-16.6,44.3-37.6
		c0.3-9.6-3.4-19.1-10.6-26.7c-8.5-9.1-20.9-14.5-33.9-14.8c-0.4,0-0.9,0-1.3,0c-25.2,0-46.8,18.9-47.5,41.8
		c-0.3,10.6,3.8,21.1,11.8,29.4c9.4,9.9,23,15.8,37.3,16.2c0.4,0,0.9,0,1.3,0c27.7,0,51.4-20.7,52.1-45.9
		c0.3-11.6-4.3-23.1-12.9-32.2c-10.3-10.8-25.1-17.2-40.6-17.6c-30.7-0.7-57.3,22.2-58,49.9c-0.3,12.6,4.7,25,14.1,34.9
		c11.2,11.7,27.2,18.6,44,18.9h124.7V751.1z"/>
</g>
<g>
</g>
<g>
</g>
<g>
</g>
<g>
</g>
<g>
</g>
<g>
</g>
<g>
</g>
<g>
</g>
<g>
</g>
<g>
</g>
<g>
</g>
<g>
</g>
<g>
</g>
<g>
</g>
<g>
</g>
</svg>
