<?xml version="1.0" encoding="iso-8859-1"?>
<!-- Generator: Adobe Illustrator 19.0.0, SVG Export Plug-In . SVG Version: 6.00 Build 0)  -->
<svg version="1.1" id="Layer_1" xmlns="http://www.w3.org/2000/svg" xmlns:xlink="http://www.w3.org/1999/xlink" x="0px" y="0px"
	 viewBox="0 0 496.2 496.2" style="enable-background:new 0 0 496.2 496.2;" xml:space="preserve">
<path style="fill:#334D5C;" d="M0,248.1C0,111.1,111.1,0,248.1,0s248.1,111.1,248.1,248.1S385.1,496.2,248.1,496.2S0,385.1,0,248.1z
	"/>
<g>
	<path style="fill:#F2A5A5;" d="M249.1,347.4L249.1,347.4c0.1,0,0.3,0,0.4-0.1c-0.1-0.1-0.1-0.2-0.2-0.2
		C249.3,347.2,249.2,347.3,249.1,347.4z"/>
	<path style="fill:#F2A5A5;" d="M324.8,310.9c-0.1,0-0.2,0-0.3,0l0,0c0.1,0.1,0.1,0.1,0.2,0.2C324.8,311.1,324.8,311,324.8,310.9z"
		/>
	<path style="fill:#F2A5A5;" d="M248.1,133.2L248.1,133.2c-69.9,69.9-69.9,183.2,0,253.2v0.1C318,316.5,318,203.1,248.1,133.2z"/>
	<path style="fill:#F2A5A5;" d="M171.4,311c0,0.1,0,0.1,0,0.2c0.1-0.1,0.2-0.1,0.2-0.2l0,0C171.5,311,171.5,311,171.4,311z"/>
	<path style="fill:#F2A5A5;" d="M288.1,286.5c-0.1,0-0.1,0.1-0.2,0.1l0,0c0.1,0,0.2,0,0.3,0.1C288.1,286.7,288.1,286.6,288.1,286.5z
		"/>
</g>
<path style="fill:#E28D8D;" d="M146.4,154.6L146.4,154.6c-36,92.1,9.6,195.9,101.7,231.9v0.1C284.1,294.4,238.5,190.5,146.4,154.6z"
	/>
<g>
	<path style="fill:#F2A5A5;" d="M147.6,348.2c0,0.1,0.1,0.1,0.1,0.2c0-0.1,0.1-0.2,0.1-0.2l0,0C147.7,348.2,147.6,348.2,147.6,348.2
		z"/>
	<path style="fill:#F2A5A5;" d="M207.7,286.5c0.1,0,0.1,0.1,0.2,0.1l0,0c-0.1,0-0.2,0-0.3,0.1C207.6,286.7,207.7,286.6,207.7,286.5z
		"/>
</g>
<path style="fill:#E28D8D;" d="M349.3,154.6L349.3,154.6c36,92.1-9.5,195.9-101.7,231.9v0.1C211.7,294.4,257.2,190.5,349.3,154.6z"
	/>
<path style="fill:#F2A5A5;" d="M348.2,348.2c0,0.1-0.1,0.1-0.1,0.2c0-0.1-0.1-0.2-0.1-0.2l0,0C348,348.2,348.1,348.2,348.2,348.2z"
	/>
<g>
	<path style="fill:#CE8282;" d="M249,278.7c-0.1,0.1-0.1,0.1-0.2,0.2l0,0c0.1,0,0.2,0,0.3,0C249.1,278.9,249.1,278.8,249,278.7z"/>
	<path style="fill:#CE8282;" d="M69.1,207.3L69.1,207.3c-0.1,98.8,80.1,179,179,179l0.1,0.1C248.2,287.5,168,207.3,69.1,207.3z"/>
	<path style="fill:#CE8282;" d="M140.5,387.3c0.1,0,0.1,0.1,0.2,0.1c0-0.1,0-0.2,0-0.3l0,0C140.7,387.2,140.6,387.3,140.5,387.3z"/>
	<path style="fill:#CE8282;" d="M247.4,278.7c0.1,0.1,0.1,0.1,0.2,0.2l0,0c-0.1,0-0.2,0-0.3,0C247.4,278.9,247.4,278.8,247.4,278.7z
		"/>
	<path style="fill:#CE8282;" d="M427.4,207.3L427.4,207.3c0.1,98.8-80.1,179-179,179l-0.1,0.1C248.3,287.5,328.5,207.3,427.4,207.3z
		"/>
	<path style="fill:#CE8282;" d="M355.9,387.3c-0.1,0-0.1,0.1-0.2,0.1c0-0.1,0-0.2,0-0.3l0,0C355.8,387.2,355.9,387.3,355.9,387.3z"
		/>
</g>
<g>
</g>
<g>
</g>
<g>
</g>
<g>
</g>
<g>
</g>
<g>
</g>
<g>
</g>
<g>
</g>
<g>
</g>
<g>
</g>
<g>
</g>
<g>
</g>
<g>
</g>
<g>
</g>
<g>
</g>
</svg>
