<?xml version="1.0" encoding="iso-8859-1"?>
<!-- Generator: Adobe Illustrator 19.0.0, SVG Export Plug-In . SVG Version: 6.00 Build 0)  -->
<svg version="1.1" id="Layer_1" xmlns="http://www.w3.org/2000/svg" xmlns:xlink="http://www.w3.org/1999/xlink" x="0px" y="0px"
	 viewBox="0 0 496.2 496.2" style="enable-background:new 0 0 496.2 496.2;" xml:space="preserve">
<path style="fill:#EA4949;" d="M0,248.1C0,111.1,111.1,0,248.1,0s248.1,111.1,248.1,248.1S385.1,496.2,248.1,496.2S0,385.1,0,248.1z
	"/>
<path style="fill:#E2A47A;" d="M365.7,247.1l-74.2,30.7c0,0-51.4,9.9-52.1,9.9l-3.9,34.3l55-12.7l102.6-54.9
	C387.9,235.4,365.7,247.1,365.7,247.1z"/>
<g>
	<path style="fill:#EEB488;" d="M405.2,242.8l-73.9,31.3c0,0-51.3,10.4-52,10.5l-3.5,34.3l54.9-13.3l102-55.8
		C427.2,230.8,405.2,242.8,405.2,242.8z"/>
	<path style="fill:#EEB488;" d="M351.5,308.6l-94.9,18.7c0,0-104.5-18.8-125.9-26l6.6-29.8L351.5,308.6z"/>
</g>
<g>
	<polygon style="fill:#E2A47A;" points="323.1,199.9 316.4,243.6 327.2,243.1 	"/>
	<path style="fill:#E2A47A;" d="M278.8,215.7l-5.3,7.9l-0.7,21.5l-17.3-16.8C255.4,228.3,272.8,208.1,278.8,215.7z"/>
</g>
<path style="fill:#F7C192;" d="M320.1,180.3c7.4-1.7,25.9,23.2,25.9,23.2l3.1,45.3l-48.3,39.3l51.4-11l74-31.1c0,0,22-11.9,27.4,7.1
	l-102.2,55.5l-94.7,10.6l-122.9-32.6l17.6-77.6l133.7-26.3c0,0,26.5-13.7,29.5-14.5c3.1-0.8,7,1.8,7,1.8c2.3,6.4,4.9,22-16.1,35.5
	c-15.6,10.1-47.1,8-35.2,28.5c0,0,7.6,26.5,51.9,0.2l-1.3-24.8C320.8,209.5,306.9,183.3,320.1,180.3z"/>
<path style="fill:#E2A47A;" d="M322,171.3c0,0,8.8,17.9-8.8,28.3C313.2,199.5,326.2,187.5,322,171.3z"/>
<path style="fill:#343A36;" d="M154.4,203.2L5,198.5c-3.3,16-5,32.6-5,49.6c0,20.8,2.6,41,7.4,60.3l127.1,0.8
	C141.2,301.5,154.4,203.2,154.4,203.2z"/>
<g>
</g>
<g>
</g>
<g>
</g>
<g>
</g>
<g>
</g>
<g>
</g>
<g>
</g>
<g>
</g>
<g>
</g>
<g>
</g>
<g>
</g>
<g>
</g>
<g>
</g>
<g>
</g>
<g>
</g>
</svg>
