<?xml version="1.0" encoding="iso-8859-1"?>
<!-- Generator: Adobe Illustrator 19.0.0, SVG Export Plug-In . SVG Version: 6.00 Build 0)  -->
<svg version="1.1" id="Layer_1" xmlns="http://www.w3.org/2000/svg" xmlns:xlink="http://www.w3.org/1999/xlink" x="0px" y="0px"
	 viewBox="0 0 496.2 496.2" style="enable-background:new 0 0 496.2 496.2;" xml:space="preserve">
<path style="fill:#D8DBBA;" d="M0,248.1C0,111.1,111.1,0,248.1,0s248.1,111.1,248.1,248.1S385.1,496.2,248.1,496.2S0,385.1,0,248.1z
	"/>
<g>
	<path style="fill:#337180;" d="M369.2,302.7c17-25.1,11.9-31,38.9-54.5l0,0l0,0l0,0l0,0c-26.9-23.5-21.9-29.4-38.9-54.5
		c-16.2-23.9-43.9-48.6-80.3-48.6c-68.2,0-99.4,53.4-99.5,103l0,0l0,0c0,0,0,0,0,0.1c0,0,0,0,0,0.1l0,0l0,0
		c0.2,49.6,31.4,103,99.5,103C325.3,351.3,353.1,326.6,369.2,302.7z"/>
	<path style="fill:#337180;" d="M127,193.8c-17,25.1-11.9,31-38.9,54.5l0,0l0,0l0,0l0,0c26.9,23.5,21.9,29.4,38.9,54.5
		c16.2,23.9,43.9,48.6,80.3,48.6c68.2,0,99.4-53.4,99.5-103l0,0l0,0c0,0,0,0,0-0.1c0,0,0,0,0-0.1l0,0l0,0
		c-0.2-49.6-31.4-103-99.5-103C170.9,145.2,143.1,169.9,127,193.8z"/>
</g>
<path style="fill:#1C4F54;" d="M153.7,248.1c0-52.1,42.3-94.4,94.4-94.4s94.4,42.3,94.4,94.4s-42.3,94.4-94.4,94.4
	S153.7,300.2,153.7,248.1z"/>
<path style="fill:#FFFFFF;" d="M158.6,248.1c0-49.5,40.1-89.5,89.5-89.5c49.5,0,89.5,40.1,89.5,89.5s-40.1,89.5-89.5,89.5
	C198.6,337.6,158.6,297.6,158.6,248.1z"/>
<path style="fill:#337180;" d="M247.2,335.6l-80.1-121.2h162L247.2,335.6z M175.3,218.8l72,109l73.6-109L175.3,218.8L175.3,218.8z"
	/>
<g>
	<path style="fill:#1C4F54;" d="M233.6,207c11.2,10.5,35,5.2,42.8-5.5l-9.1-11c0,0-0.3,0.4-1,1c-5.5,4.4-12.8,10.6-21.7,10.4
		c-10.9-0.3-14.9-8.6-19.1-16.9C226.1,194.8,228.1,201.8,233.6,207z"/>
	<polygon style="fill:#1C4F54;" points="245,179.1 255.7,188.8 245.7,198.9 235.6,189.5 	"/>
	<path style="fill:#1C4F54;" d="M266.3,259.8c-1.6-1-6-3.2-8.2-3.5c5.9-5.1,12.8-9.7,12.3-20.4c-0.4-9.2-7.8-15.9-16.9-16.9
		c-10.8-1.1-20.7,4.5-27.9,8.8l7.8,14c4.9-2.1,8.8-7.3,15.6-8.1c6.3-0.7,13,1.3,13.6,5.8c1.4,10.2-12.9,10.9-22.7,9.1l5.5,17.5
		c5.4-2,13.3-2.5,16.9,1c7.3,7.2,0,19.7-6.8,22.1c-3.6,1.2-8.2,1.5-11.7,1.3c-17.9-1.3-24.5-18.5-26.9-36
		c-0.9,0.5-0.6,10.7-0.6,10.7c1.7,22.7,12.9,36.8,32.4,40.6c8.4,1.6,17.1-3.6,20.8-7.5c8.5-8.9,5.9-23.9,1.6-33.4
		C269.3,261.9,267.7,260.6,266.3,259.8z"/>
</g>
<g>
</g>
<g>
</g>
<g>
</g>
<g>
</g>
<g>
</g>
<g>
</g>
<g>
</g>
<g>
</g>
<g>
</g>
<g>
</g>
<g>
</g>
<g>
</g>
<g>
</g>
<g>
</g>
<g>
</g>
</svg>
