<?xml version="1.0" encoding="iso-8859-1"?>
<!-- Generator: Adobe Illustrator 19.0.0, SVG Export Plug-In . SVG Version: 6.00 Build 0)  -->
<svg version="1.1" id="Layer_1" xmlns="http://www.w3.org/2000/svg" xmlns:xlink="http://www.w3.org/1999/xlink" x="0px" y="0px"
	 viewBox="0 0 496.2 496.2" style="enable-background:new 0 0 496.2 496.2;" xml:space="preserve">
<path style="fill:#D8DBBA;" d="M0,248.1C0,111.1,111.1,0,248.1,0s248.1,111.1,248.1,248.1S385.1,496.2,248.1,496.2S0,385.1,0,248.1z
	"/>
<g>
	<path style="fill:#6ACED3;" d="M257.3,186.2l-42,8.6c0,0-2.6-64.8,8.2-67C234.1,125.7,257.3,186.2,257.3,186.2z"/>
	<path style="fill:#6ACED3;" d="M238.9,310l42-8.6c0,0,2.6,64.8-8.2,67C262.1,370.5,238.9,310,238.9,310z"/>
	<path style="fill:#6ACED3;" d="M310,257.3l-8.6-42c0,0,64.8-2.6,67,8.2C370.5,234.1,310,257.3,310,257.3z"/>
	<path style="fill:#6ACED3;" d="M186.2,238.9l8.6,42c0,0-64.8,2.6-67-8.2C125.7,262.1,186.2,238.9,186.2,238.9z"/>
	<path style="fill:#6ACED3;" d="M298.4,210.8l-35.8-23.6c0,0,44-47.6,53.1-41.6S298.4,210.8,298.4,210.8z"/>
	<path style="fill:#6ACED3;" d="M197.8,285.4l35.8,23.6c0,0-44,47.6-53.1,41.6S197.8,285.4,197.8,285.4z"/>
	<path style="fill:#6ACED3;" d="M285.4,298.4l23.6-35.8c0,0,47.6,44,41.6,53.1S285.4,298.4,285.4,298.4z"/>
	<path style="fill:#6ACED3;" d="M210.8,197.8l-23.6,35.8c0,0-47.6-44-41.6-53.1S210.8,197.8,210.8,197.8z"/>
	<path style="fill:#6ACED3;" d="M280.7,194.7l-42.1-8.4c0,0,22.9-60.6,33.6-58.5C283,129.9,280.7,194.7,280.7,194.7z"/>
	<path style="fill:#6ACED3;" d="M215.5,301.5l42.1,8.4c0,0-22.9,60.6-33.6,58.5C213.2,366.3,215.5,301.5,215.5,301.5z"/>
	<path style="fill:#6ACED3;" d="M301.5,280.7l8.4-42.1c0,0,60.6,22.9,58.5,33.6C366.3,283,301.5,280.7,301.5,280.7z"/>
	<path style="fill:#6ACED3;" d="M194.7,215.5l-8.4,42.1c0,0-60.6-22.9-58.5-33.6C129.9,213.2,194.7,215.5,194.7,215.5z"/>
	<path style="fill:#6ACED3;" d="M308.9,233.4l-23.8-35.7c0,0,59.1-26.7,65.1-17.6C356.3,189.2,308.9,233.4,308.9,233.4z"/>
	<path style="fill:#6ACED3;" d="M187.3,262.8l23.8,35.7c0,0-59.1,26.7-65.1,17.6C139.9,307,187.3,262.8,187.3,262.8z"/>
	<path style="fill:#6ACED3;" d="M262.8,308.9l35.7-23.8c0,0,26.7,59.1,17.6,65.1C307,356.3,262.8,308.9,262.8,308.9z"/>
	<path style="fill:#6ACED3;" d="M233.4,187.3l-35.7,23.8c0,0-26.7-59.1-17.6-65.1C189.2,139.9,233.4,187.3,233.4,187.3z"/>
</g>
<path style="fill:#FFFFFF;" d="M391.4,248.1c0-5.2-4.1-11.8-34.1-21.3c24.2-20.1,25.5-27.7,23.6-32.5c-2.1-5.3-9.6-7.6-24.2-7.6
	c-5.4,0-11.3,0.3-17.1,0.8c15.4-29.2,13.6-37,9.9-40.8c-1.7-1.7-4.1-2.5-7.2-2.5c-7.4,0-20,5.3-32,11.5c2.9-31.3-1.5-37.6-6.3-39.6
	c-1-0.4-2-0.6-3.1-0.6c-4.2,0-12,2.7-30.9,25.1c-9.8-31.6-16.5-35.8-21.8-35.8c-5.2,0-11.8,4.1-21.3,34.1
	c-17.9-21.6-25.4-24.2-29.5-24.2c-1.1,0-2.1,0.2-3,0.6c-4.9,2-9.5,8.5-6.8,41.3c-12.5-6.5-25.8-12.4-33.6-12.4
	c-3.1,0-5.5,0.9-7.2,2.5c-3.7,3.7-5.4,11.2,9,39.1c-6-0.6-11.9-0.9-17.3-0.9c-13.3,0-20.2,2.2-22.4,7.2c-2.1,4.9-0.8,12.7,24.5,34.1
	c-31.5,9.8-35.8,16.5-35.8,21.8c0,5.2,4.1,11.8,34.1,21.3c-24.2,20.1-25.5,27.7-23.6,32.5c2.1,5.3,9.6,7.6,24.2,7.6
	c5.4,0,11.3-0.3,17.1-0.8c-15.4,29.2-13.6,37-9.9,40.8c1.7,1.7,4.1,2.5,7.2,2.5c7.4,0,20-5.3,32-11.5c-2.9,31.3,1.5,37.6,6.3,39.6
	c1,0.4,2,0.6,3.1,0.6c4.2,0,12-2.7,30.9-25.1c9.8,31.6,16.5,35.8,21.8,35.8c5.2,0,11.8-4.1,21.3-34.1c17.9,21.6,25.4,24.2,29.5,24.2
	c1.1,0,2.1-0.2,3-0.6c4.9-2,9.5-8.5,6.8-41.3c12.5,6.5,25.8,12.4,33.6,12.4c3.1,0,5.5-0.9,7.2-2.5c3.7-3.7,5.4-11.2-9-39.1
	c6,0.6,11.9,0.9,17.3,0.9c13.3,0,20.2-2.2,22.4-7.2c2.1-4.9,0.8-12.7-24.5-34.1C387.2,260.1,391.4,253.4,391.4,248.1z M373.5,197.3
	c0,0.7-0.6,6.5-23.5,25.2c-0.6,0.5-1.3,1-1.9,1.5c-13.7-3.9-25.8-6.6-25.9-6.6h-0.1c0,0,0,0,0-0.1c0.1-0.1,6.2-9.6,12.8-21.4
	c7.3-0.7,15-1.3,21.8-1.3C370.4,194.7,373.2,197,373.5,197.3z M269.8,325.3c-0.8,3.6-2.2,8.9-3.8,14.9c-3.8-4.9-7-9.4-9.1-12.4
	l6.2-2.5H269.8z M238,327.7c-2,2.7-4.9,6.6-8.3,10.9c-1.4-5.3-2.6-10-3.3-13.3h6L238,327.7z M208.8,318.1c-3.7,2.3-8.2,5-13.2,7.9
	c0.8-6.2,1.7-11.6,2.3-15.2l6.1,2.6L208.8,318.1z M184.7,297.2c-3.3,0.5-8.1,1.2-13.6,1.9c2.8-4.8,5.3-8.9,7-11.8l4.3,4.3
	L184.7,297.2z M226.4,170.9c0.8-3.6,2.2-8.9,3.8-14.9c3.8,4.9,7,9.4,9.1,12.4l-6.2,2.5H226.4z M258.2,168.5c2-2.7,4.9-6.6,8.3-10.9
	c1.4,5.3,2.6,10,3.3,13.3h-6L258.2,168.5z M287.4,178.1c3.7-2.3,8.2-5,13.2-7.9c-0.8,6.2-1.7,11.6-2.3,15.2l-6.1-2.6L287.4,178.1z
	 M311.5,199c3.3-0.5,8.1-1.2,13.6-1.9c-2.8,4.8-5.3,8.9-7,11.8l-4.3-4.3L311.5,199z M306.6,287.5L287.1,307l-25.5,10.3h-27.5
	l-25.4-10.7l-19.5-19.5l-10.3-25.5v-27.5l10.7-25.4l19.5-19.5l25.5-10.3h27.5l25.4,10.7l19.5,19.5l10.3,25.5v27.5L306.6,287.5z
	 M204.6,182.4l-5.6,2.3c-0.5-3.3-1.2-8.1-1.9-13.6c4.4,2.6,8.5,5,11.8,7L204.6,182.4z M182.8,204.1l-4.7,4.7
	c-1.9-3.1-4.8-7.8-7.9-13.2c6.2,0.8,11.6,1.7,15.2,2.3L182.8,204.1z M170.9,232.4l-2.4,5.6c-2.7-2-6.6-4.9-10.9-8.3
	c5.3-1.4,10-2.6,13.3-3.3L170.9,232.4L170.9,232.4z M170.9,263.1v6.7c-3.6-0.8-8.9-2.2-14.9-3.8c4.9-3.8,9.4-7,12.4-9.1L170.9,263.1
	z M291.6,313.8l5.6-2.3c0.5,3.3,1.2,8.1,1.9,13.6c-4.4-2.6-8.5-5-11.8-7L291.6,313.8z M313.4,292.1l4.7-4.7
	c1.9,3.1,4.8,7.8,7.9,13.2c-6.2-0.8-11.6-1.7-15.2-2.3L313.4,292.1z M325.3,263.8l2.4-5.6c2.7,2,6.6,4.9,10.9,8.3
	c-5.3,1.4-10,2.6-13.3,3.3V263.8z M325.3,233.1v-6.7c3.6,0.8,8.9,2.2,14.9,3.8c-4.9,3.8-9.4,7-12.4,9.1L325.3,233.1z M343.8,152.4
	c0.3,0.7,2,6.2-11.8,32.3c-0.7,1.2-1.3,2.5-2,3.7c-13.1,1.5-24,3.3-24.7,3.4c0,0,0,0-0.1,0c0,0,0,0,0-0.1s2.3-12.3,4-26.4
	c12.8-6.9,26.3-13.2,33-13.2C343.2,152.2,343.6,152.4,343.8,152.4z M300.9,123.5c0.6,0.5,4.2,5.1,1.2,34.4c-0.1,0.8-0.2,1.6-0.3,2.4
	c-11.4,6.3-20.9,12.4-23,13.7l0,0c0-0.2-0.1-0.3-0.1-0.5c-0.5-2.1-2.7-12.2-6-23.8c0.7-0.8,1.3-1.6,2-2.4
	C293.3,125,299.6,123.5,300.9,123.5z M248.1,112.8c0.7,0.2,5.8,2.9,14.5,31.2c0.4,1.3,0.8,2.7,1.2,4c-8.4,10.5-15,19.8-15,19.9
	c0,0,0,0,0,0.1c0,0,0,0,0-0.1c-0.1-0.1-7-10.3-15.8-21.6c0.2-0.8,0.5-1.6,0.7-2.4C242.3,115.7,247.4,113,248.1,112.8z M195.6,157.1
	c-2.7-31,1.6-34.3,1.7-34.4c1,0,7.1,1.2,25.8,24.2c0.3,0.4,0.6,0.8,0.9,1.2c-3.9,13.7-6.6,25.8-6.6,25.9v0.1c0,0,0,0-0.1,0
	c-2-1.3-10.8-6.9-21.4-12.8C195.8,159.8,195.7,158.4,195.6,157.1z M164.2,184.8c-13.9-26.1-12.1-31.7-11.8-32.4
	c0.1-0.1,0.6-0.2,1.5-0.2c6.9,0,21.2,6.7,34.5,14c1.5,13.4,3.4,24.6,3.4,24.7c0,0,0,0,0,0.1c0,0,0,0-0.1,0
	c-0.8-0.1-12.6-2.4-26.4-4.1C165,186.2,164.6,185.5,164.2,184.8z M123.5,195.3c0.3-0.3,2.9-2.4,15-2.4c6.7,0,14.4,0.6,21.9,1.4
	c6.9,12.5,13.6,22.9,13.7,23c0,0,0,0,0,0.1H174c-0.1,0-11.2,2.4-24.2,6.1c-1.1-0.9-2.1-1.8-3.2-2.6
	C124,201.9,123.5,196.1,123.5,195.3z M112.8,248.1c0.2-0.7,2.9-5.8,31.2-14.5c1.3-0.4,2.7-0.8,4-1.2c10.5,8.4,19.8,15,19.9,15
	c0,0,0,0,0.1,0c0,0,0,0-0.1,0c-0.1,0.1-10.3,7-21.6,15.8c-0.8-0.2-1.5-0.5-2.3-0.7C115.7,253.9,113,248.8,112.8,248.1z M122.7,298.9
	c0-0.7,0.6-6.5,23.5-25.2c0.6-0.5,1.3-1,1.9-1.5c13.7,3.9,25.8,6.6,25.9,6.6h0.1c0,0,0,0,0,0.1c-0.1,0.1-6.2,9.6-12.8,21.4
	c-7.3,0.7-15,1.3-21.8,1.3C125.8,301.5,123,299.2,122.7,298.9z M152.4,343.8c-0.3-0.6-2-6.2,11.8-32.3c0.7-1.2,1.3-2.5,2-3.7
	c13.1-1.5,24-3.3,24.7-3.4c0,0,0,0,0.1,0c0,0,0,0,0,0.1s-2.3,12.3-4,26.4c-12.8,6.9-26.3,13.2-33,13.2
	C153,344,152.6,343.8,152.4,343.8z M195.3,372.7L195.3,372.7c-0.6-0.5-4.2-5-1.2-34.4c0.1-0.8,0.2-1.6,0.3-2.4
	c11.4-6.3,20.9-12.4,23-13.7c0,0,0,0,0.1,0v0.1c0,0.1,2.4,11.2,6.1,24.2c-0.7,0.8-1.3,1.6-2,2.4
	C202.6,371.5,196.4,372.7,195.3,372.7z M248.1,383.4c-0.7-0.2-5.8-2.9-14.5-31.2c-0.4-1.3-0.8-2.7-1.2-4c8.4-10.5,15-19.8,15-19.9
	c0,0,0,0,0-0.1c0,0,0,0,0,0.1c0.1,0.1,7,10.3,15.8,21.6c-0.2,0.8-0.5,1.6-0.7,2.4C253.9,380.5,248.8,383.2,248.1,383.4z
	 M300.6,339.1c2.6,29.4-1.2,33.9-1.7,34.4l0,0c-1,0-7.1-1.2-25.8-24.2c-0.3-0.4-0.6-0.8-0.9-1.2c3.9-13.7,6.6-25.8,6.6-25.9v-0.1
	c0,0,0,0,0.1,0c2,1.3,10.8,6.9,21.4,12.8C300.4,336.4,300.5,337.8,300.6,339.1z M332,311.4c13.9,26.1,12.1,31.7,11.8,32.4
	c-0.1,0.1-0.6,0.2-1.5,0.2c-6.9,0-21.2-6.7-34.5-14c-1.5-13.4-3.4-24.6-3.4-24.7c0,0,0,0,0-0.1c0,0,0,0,0.1,0
	c0.8,0.1,12.6,2.4,26.4,4.1C331.2,310,331.6,310.7,332,311.4z M372.7,300.9c-0.3,0.3-2.9,2.4-15,2.4c-6.7,0-14.4-0.6-21.9-1.4
	c-6.9-12.5-13.6-22.9-13.7-23c0,0,0,0,0-0.1c0,0,0,0,0.1,0s11.2-2.4,24.2-6.1c1.1,0.9,2.1,1.8,3.2,2.6
	C372.2,294.3,372.7,300.1,372.7,300.9z M352.2,262.6c-1.3,0.4-2.7,0.8-4,1.2c-10.5-8.4-19.8-15-19.9-15c0,0,0,0-0.1,0c0,0,0,0,0.1,0
	c0.1-0.1,10.3-7,21.6-15.8c0.8,0.2,1.6,0.5,2.4,0.7c28.3,8.7,31,13.9,31.2,14.5C383.2,248.8,380.5,253.9,352.2,262.6z"/>
<g>
	<path style="fill:#5DB8C1;" d="M274.8,174.9h-53.5c0,0,14.3-66.1,26.7-66.1C260.5,108.8,274.8,174.9,274.8,174.9z"/>
	<path style="fill:#5DB8C1;" d="M221.4,321.3h53.5c0,0-14.3,66.1-26.7,66.1C235.7,387.4,221.4,321.3,221.4,321.3z"/>
	<path style="fill:#5DB8C1;" d="M321.3,274.8v-53.5c0,0,66.1,14.3,66.1,26.7C387.4,260.5,321.3,274.8,321.3,274.8z"/>
	<path style="fill:#5DB8C1;" d="M174.9,221.4v53.5c0,0-66.1-14.3-66.1-26.7S174.9,221.4,174.9,221.4z"/>
	<path style="fill:#5DB8C1;" d="M318.8,215.2L281,177.4c0,0,56.9-36.6,65.6-27.8C355.4,158.4,318.8,215.2,318.8,215.2z"/>
	<path style="fill:#5DB8C1;" d="M177.4,281l37.8,37.8c0,0-56.9,36.6-65.6,27.8C140.8,337.8,177.4,281,177.4,281z"/>
	<path style="fill:#5DB8C1;" d="M281,318.8l37.8-37.8c0,0,36.6,56.9,27.8,65.6C337.8,355.4,281,318.8,281,318.8z"/>
	<path style="fill:#5DB8C1;" d="M215.2,177.4l-37.8,37.8c0,0-36.6-56.9-27.8-65.6C158.4,140.8,215.2,177.4,215.2,177.4z"/>
	<path style="fill:#5DB8C1;" d="M301.3,191.1l-49.2-20.9c0,0,39-55.3,50.4-50.4C313.9,124.6,301.3,191.1,301.3,191.1z"/>
	<path style="fill:#5DB8C1;" d="M194.9,305.1l49.2,20.9c0,0-39,55.3-50.4,50.4C182.3,371.6,194.9,305.1,194.9,305.1z"/>
	<path style="fill:#5DB8C1;" d="M305.1,301.3l20.9-49.2c0,0,55.3,39,50.4,50.4C371.6,313.9,305.1,301.3,305.1,301.3z"/>
	<path style="fill:#5DB8C1;" d="M191.1,194.9l-20.9,49.2c0,0-55.3-39-50.4-50.4C124.6,182.3,191.1,194.9,191.1,194.9z"/>
	<path style="fill:#5DB8C1;" d="M326,245.4l-20.1-49.6c0,0,66.6-11.5,71.3,0C381.9,207.3,326,245.4,326,245.4z"/>
	<path style="fill:#5DB8C1;" d="M170.2,250.8l20.1,49.6c0,0-66.6,11.5-71.3,0C114.3,288.9,170.2,250.8,170.2,250.8z"/>
	<path style="fill:#5DB8C1;" d="M250.8,326l49.6-20.1c0,0,11.5,66.6,0,71.3C288.9,381.9,250.8,326,250.8,326z"/>
	<path style="fill:#5DB8C1;" d="M245.4,170.2l-49.6,20.1c0,0-11.5-66.6,0-71.3C207.3,114.3,245.4,170.2,245.4,170.2z"/>
</g>
<g>
	<path style="fill:#6ACED3;" d="M267.8,194.2h-39.4c0,0,9.7-58.7,19.7-58.7C258.1,135.5,267.8,194.2,267.8,194.2z"/>
	<path style="fill:#6ACED3;" d="M228.4,302h39.4c0,0-9.7,58.7-19.7,58.7S228.4,302,228.4,302z"/>
	<path style="fill:#6ACED3;" d="M302,267.8v-39.4c0,0,58.7,9.7,58.7,19.7C360.7,258.1,302,267.8,302,267.8z"/>
	<path style="fill:#6ACED3;" d="M194.2,228.4v39.4c0,0-58.7-9.7-58.7-19.7S194.2,228.4,194.2,228.4z"/>
	<path style="fill:#6ACED3;" d="M300.2,223.9L272.3,196c0,0,48.3-34.7,55.4-27.6S300.2,223.9,300.2,223.9z"/>
	<path style="fill:#6ACED3;" d="M196,272.3l27.9,27.9c0,0-48.3,34.7-55.4,27.6S196,272.3,196,272.3z"/>
	<path style="fill:#6ACED3;" d="M272.3,300.2l27.9-27.9c0,0,34.7,48.3,27.6,55.4S272.3,300.2,272.3,300.2z"/>
	<path style="fill:#6ACED3;" d="M223.9,196L196,223.9c0,0-34.7-48.3-27.6-55.4C175.5,161.3,223.9,196,223.9,196z"/>
	<path style="fill:#6ACED3;" d="M287.3,206.1L251,190.7c0,0,31.8-50.3,41-46.4C301.3,148.3,287.3,206.1,287.3,206.1z"/>
	<path style="fill:#6ACED3;" d="M208.9,290.1l36.3,15.4c0,0-31.8,50.3-41,46.4C194.9,347.9,208.9,290.1,208.9,290.1z"/>
	<path style="fill:#6ACED3;" d="M290.1,287.3l15.4-36.3c0,0,50.3,31.8,46.4,41C347.9,301.3,290.1,287.3,290.1,287.3z"/>
	<path style="fill:#6ACED3;" d="M206.1,208.9l-15.4,36.3c0,0-50.3-31.8-46.4-41C148.3,194.9,206.1,208.9,206.1,208.9z"/>
	<path style="fill:#6ACED3;" d="M305.5,246.1l-14.8-36.5c0,0,58-13.1,61.8-3.8C356.3,215.1,305.5,246.1,305.5,246.1z"/>
	<path style="fill:#6ACED3;" d="M190.7,250.1l14.8,36.5c0,0-58,13.1-61.8,3.8C139.9,281.1,190.7,250.1,190.7,250.1z"/>
	<path style="fill:#6ACED3;" d="M250.1,305.5l36.5-14.8c0,0,13.1,58,3.8,61.8C281.1,356.3,250.1,305.5,250.1,305.5z"/>
	<path style="fill:#6ACED3;" d="M246.1,190.7l-36.5,14.8c0,0-13.1-58-3.8-61.8S246.1,190.7,246.1,190.7z"/>
</g>
<path style="fill:#FFFFFF;" d="M158.8,248.1c0-49.3,40-89.3,89.3-89.3s89.3,40,89.3,89.3s-40,89.3-89.3,89.3
	S158.8,297.4,158.8,248.1z"/>
<g>
	<path style="fill:#7CE5E5;" d="M248.1,214.7c-23.5,0-42.6,19.1-42.6,42.6s19.1,42.6,42.6,42.6s42.6-19.1,42.6-42.6
		S271.6,214.7,248.1,214.7z M248.1,296c-21.3,0-38.7-17.3-38.7-38.7c0-21.3,17.3-38.7,38.7-38.7s38.7,17.3,38.7,38.7
		C286.8,278.7,269.4,296,248.1,296z"/>
	<path style="fill:#7CE5E5;" d="M247.2,335.6l-80.1-121.2h162L247.2,335.6z M175.3,218.8l72,109l73.6-109L175.3,218.8L175.3,218.8z"
		/>
</g>
<g>
	<polygon style="fill:#5DB8C1;" points="245,179.1 255.7,188.8 245.7,198.9 235.6,189.5 	"/>
	<path style="fill:#5DB8C1;" d="M292.2,222.6c-0.2,0,6.9-15.9,6.5-15.9c-28.7,0-72.6,0-101.3,0c0.2,0,8.8,15.9,8.8,15.9H292.2z"/>
	<path style="fill:#5DB8C1;" d="M272.2,218.1c0,0,2.9,7-0.5,13s-26.4,1.5-36,7c-16.2,9.3,8,18.5,8,18.5s29-19,40.5-2.5
		c0,0,7.4,9.2,7.6,24l-17.6,5c0,0,0.2-29.8-23.1-19.8c-11,4.8-22.6,31.8-1.2,36.2c8.4,1.8,14,2.2,29.9-1.5c0,0-17.4,14.2-40,7
		c-2.8-0.9-29.7-12.4-5.3-41.4c0,0-30.7,5.9-28.7-18.6c0,0,0-11,31-14c0,0,20.5,0.5,20.5-12.5L272.2,218.1z"/>
</g>
<g>
</g>
<g>
</g>
<g>
</g>
<g>
</g>
<g>
</g>
<g>
</g>
<g>
</g>
<g>
</g>
<g>
</g>
<g>
</g>
<g>
</g>
<g>
</g>
<g>
</g>
<g>
</g>
<g>
</g>
</svg>
