<?xml version="1.0" encoding="iso-8859-1"?>
<!-- Generator: Adobe Illustrator 19.0.0, SVG Export Plug-In . SVG Version: 6.00 Build 0)  -->
<svg version="1.1" id="Layer_1" xmlns="http://www.w3.org/2000/svg" xmlns:xlink="http://www.w3.org/1999/xlink" x="0px" y="0px"
	 viewBox="0 0 496.2 496.2" style="enable-background:new 0 0 496.2 496.2;" xml:space="preserve">
<path style="fill:#D8DBBA;" d="M0,248.1C0,111.1,111.1,0,248.1,0s248.1,111.1,248.1,248.1S385.1,496.2,248.1,496.2S0,385.1,0,248.1z
	"/>
<path style="fill:#FFFFFF;" d="M383,245c-1.8-1.5-3.3-2.7-4.6-3.7c-2.8-2.1-4.6-3.6-6.7-6.6c-2.8-4.1-6.2-7.2-10-9.2
	c2.7-3.3,4.7-7.5,5.7-12.3c0.8-3.6,1.9-5.6,3.7-8.6c0.9-1.5,1.8-3.2,2.9-5.3c0.3-0.5,0.4-1,0.5-1.5c0.1-0.6,0-1.2-0.2-1.8
	c-0.2-0.5-0.4-0.9-0.8-1.3c-0.5-0.6-1.2-1-1.9-1.2c-2.3-0.7-4.2-1.2-5.8-1.7c-3.4-0.9-5.6-1.5-8.7-3.5c-4-2.6-8.4-4.2-12.6-4.6
	c1.2-4.1,1.4-8.6,0.5-13.4c-0.7-3.6-0.4-5.9,0.1-9.4c0.2-1.7,0.5-3.7,0.7-6c0.1-0.7,0-1.3-0.3-2c-0.3-0.6-0.6-1.1-1.1-1.5
	c-0.3-0.3-0.7-0.5-1.1-0.6c-0.6-0.2-1.3-0.3-1.9-0.3c-2.4,0.2-4.4,0.4-6.1,0.7c-2.1,0.3-3.7,0.5-5.4,0.5c-1.3,0-2.6-0.1-4-0.4
	c-1.9-0.4-3.9-0.5-5.8-0.5c-2.8,0-5.3,0.4-7.7,1.1c-0.4-4.3-2-8.6-4.7-12.7c-2-3.1-2.6-5.3-3.5-8.7c-0.4-1.7-1-3.5-1.7-5.8
	c-0.1-0.4-0.3-0.8-0.6-1.2c-0.5-0.7-1.1-1.2-1.9-1.5l0,0c-0.7-0.3-1.4-0.3-2.2-0.2c-0.4,0.1-0.8,0.2-1.2,0.4
	c-2.1,1.1-3.8,2.1-5.3,2.9c-3,1.8-5.1,2.9-8.6,3.7c-4.8,1-8.9,3-12.2,5.6c-2-3.7-5.1-7.1-9.1-9.9c-3-2.1-4.4-3.9-6.6-6.7
	c-1-1.4-2.2-2.9-3.8-4.7c-0.4-0.5-1-0.9-1.6-1.2c-1.1-0.5-2.3-0.4-3.4,0.1c-0.5,0.3-0.9,0.6-1.2,1c-1.6,1.8-2.8,3.4-3.8,4.8
	c-2.1,2.8-3.6,4.6-6.6,6.7c-4.1,2.8-7.2,6.2-9.2,10c-3.3-2.7-7.5-4.7-12.3-5.7c-3.6-0.8-5.6-1.9-8.6-3.7c-1.5-0.9-3.2-1.8-5.3-2.9
	c-0.6-0.3-1.2-0.5-1.9-0.5c-1.3,0-2.5,0.6-3.3,1.6c-0.3,0.4-0.5,0.8-0.6,1.3c-0.8,2.3-1.3,4.2-1.7,5.9c-0.9,3.4-1.5,5.6-3.5,8.7
	c-2.7,4.1-4.2,8.4-4.6,12.6c-2.4-0.7-4.9-1.1-7.6-1.1c-1.9,0-3.9,0.2-5.8,0.5c-1.4,0.3-2.7,0.4-4,0.4c-1.7,0-3.3-0.2-5.4-0.5
	c-1.7-0.2-3.6-0.5-6-0.7c-0.8-0.1-1.6,0.1-2.4,0.5c-1,0.5-1.6,1.4-1.9,2.4c-0.1,0.5-0.2,1-0.1,1.5c0.2,2.4,0.4,4.4,0.7,6.1
	c0.5,3.5,0.8,5.8,0.1,9.4c-0.9,4.8-0.7,9.5,0.6,13.5c-4.3,0.4-8.7,2-12.7,4.7c-3.1,2-5.3,2.6-8.7,3.5c-1.7,0.5-3.6,1-5.9,1.7
	c-1.4,0.4-2.5,1.6-2.8,3.1c-0.2,0.9,0,1.9,0.4,2.7c1.1,2.1,2.1,3.8,2.9,5.3c1.8,3,2.9,5.1,3.7,8.6c1,4.8,3,8.9,5.6,12.2
	c-3.7,2-7.1,5.1-9.9,9.1c-2.1,3-3.9,4.4-6.7,6.6c-1.4,1.1-3,2.3-4.8,3.9c-0.4,0.3-0.7,0.8-1,1.3c-0.6,1.2-0.6,2.7,0.2,3.9
	c0.2,0.4,0.5,0.7,0.9,1c1.8,1.6,3.4,2.8,4.8,3.8c2.8,2.1,4.6,3.6,6.7,6.6c2.8,4.1,6.2,7.2,10,9.2c-2.7,3.3-4.7,7.5-5.7,12.3
	c-0.8,3.6-1.9,5.6-3.7,8.6c-0.9,1.5-1.9,3.2-3,5.4l0,0c-0.7,1.4-0.5,3.2,0.6,4.4c0.5,0.6,1.2,1,1.9,1.2c2.3,0.7,4.2,1.2,5.8,1.7
	c3.4,0.9,5.6,1.5,8.7,3.5c4,2.6,8.4,4.2,12.6,4.6c-1.2,4.1-1.4,8.6-0.5,13.4c0.7,3.6,0.4,5.9-0.1,9.4c-0.2,1.7-0.5,3.6-0.7,6
	c-0.1,1.1,0.2,2.3,1,3.2c0.8,0.9,1.9,1.3,2.9,1.3c0.2,0,0.3,0,0.5,0c2.4-0.2,4.3-0.4,6-0.7c2.1-0.3,3.7-0.5,5.4-0.5
	c1.3,0,2.6,0.1,4,0.4c1.9,0.4,3.9,0.5,5.8,0.5c2.8,0,5.3-0.4,7.7-1.1c0.4,4.3,2,8.6,4.7,12.7c2,3.1,2.6,5.3,3.5,8.7
	c0.4,1.7,1,3.5,1.7,5.8c0.2,0.8,0.7,1.5,1.4,2.1c0.2,0.2,0.5,0.3,0.8,0.5c0.5,0.2,1.1,0.4,1.7,0.4c0.1,0,0.1,0,0.2,0
	c0.6,0,1.2-0.2,1.7-0.5c2.1-1.1,3.8-2.1,5.3-2.9c3-1.8,5.1-2.9,8.6-3.7c4.8-1,8.9-3,12.2-5.6c2,3.7,5.1,7.1,9.1,9.9
	c3,2.1,4.4,3.9,6.6,6.7c1,1.4,2.2,2.9,3.8,4.7c0.5,0.6,1.1,1,1.8,1.3c0.4,0.2,0.9,0.2,1.4,0.2c0.6,0,1.2-0.1,1.7-0.4
	c0.6-0.3,1-0.6,1.4-1.1c1.6-1.8,2.8-3.4,3.8-4.8c2.1-2.8,3.6-4.6,6.6-6.7c4.1-2.8,7.2-6.2,9.2-10c3.3,2.7,7.5,4.7,12.3,5.7
	c3.6,0.8,5.6,1.9,8.6,3.7c1.5,0.9,3.2,1.9,5.4,3l0,0c0.5,0.3,1.1,0.4,1.7,0.4h0.1c1.9,0,3.5-1.4,3.9-3.2c0.7-2.2,1.2-3.9,1.6-5.5
	c0.9-3.4,1.5-5.6,3.5-8.7c2.7-4.1,4.2-8.4,4.6-12.6c2.4,0.7,4.9,1.1,7.6,1.1l0,0c1.9,0,3.9-0.2,5.8-0.5c1.4-0.3,2.7-0.4,4-0.4
	c1.7,0,3.3,0.2,5.4,0.5c1.7,0.2,3.7,0.5,6.1,0.7c0.1,0,0.3,0,0.4,0s0.2,0,0.2,0c2.1-0.1,3.8-1.9,3.8-4c0-0.3,0-0.5-0.1-0.7
	c-0.2-2.3-0.4-4.1-0.6-5.7c-0.5-3.5-0.8-5.8-0.1-9.4c0.9-4.8,0.7-9.5-0.6-13.5c4.3-0.4,8.7-2,12.7-4.7c3.1-2,5.3-2.6,8.7-3.5
	c1.6-0.4,3.5-0.9,5.7-1.7c1.7-0.4,3-2,3-3.9c0-0.8-0.2-1.5-0.6-2.1c-1-2-2-3.7-2.8-5.1c-1.8-3-2.9-5.1-3.7-8.6
	c-1-4.8-3-8.9-5.6-12.2c3.7-2,7.1-5.1,9.9-9.1c2.1-3,3.9-4.4,6.7-6.6c1.3-1,2.8-2.2,4.6-3.7c1-0.7,1.7-1.9,1.7-3.3
	C384.7,246.9,384,245.7,383,245z M342.2,191.6c4.6,0,8.6,2.2,10.6,3.5c4.1,2.7,7.3,3.5,11,4.5c0.3,0.1,0.6,0.2,0.9,0.2
	c-0.2,0.3-0.3,0.6-0.5,0.8c-1.9,3.3-3.5,6.2-4.6,11c-0.5,2.5-2.2,8.2-6.8,11.4c-0.4,0-0.8,0-1.2,0c-4.4,0-8.3,1-11.5,2.6
	c-5.9-1.3-9.8-6-11.8-10.5c0-0.1-0.1-0.2-0.1-0.3c-1.6-4-2.4-10.3,0.7-15.5c3.7-1.2,7.1-3.4,10.2-6.4c0.3-0.3,0.6-0.7,1-1
	C340.8,191.7,341.5,191.6,342.2,191.6z M332.8,265.1c-5.1,2.7-9.4,7.3-11.8,13.2l0,0c0,0,0,0,0,0.1l0,0c-2.3,5.6-2.8,12-1,17.8
	c-5.8,0.5-11.6,3.3-16.1,7.8l0,0l0,0c-4.2,4.3-7.1,9.9-7.7,16c-2.3-0.7-4.7-1.1-7.2-1.1c-3.5,0-7.2,0.7-10.5,2.1l0,0l0,0
	c-5.6,2.3-10.5,6.6-13.3,12c-4.7-3.9-10.8-5.9-16.9-6l0,0l0,0c-6,0-12.1,2-16.8,5.9c-2.8-5.4-7.7-9.5-13.3-11.9l0,0l0,0
	c-3.3-1.4-7-2.1-10.5-2.1c-2.6,0-5.1,0.4-7.4,1.1c-0.6-6-3.4-11.8-7.7-16l0,0l0,0l0,0c0,0,0,0-0.1-0.1c-4.5-4.4-10.2-7.2-16-7.7
	c1.8-5.8,1.3-12.2-1-17.7l0,0l0,0c-2.5-5.9-6.8-10.6-12-13.3c3.9-4.7,5.9-10.8,6-16.9l0,0l0,0c0-6-2-12.1-5.9-16.8
	c5.1-2.7,9.4-7.3,11.8-13.2l0,0c0,0,0,0,0-0.1l0,0c2.3-5.6,2.8-12,1-17.8c5.8-0.5,11.6-3.3,16.1-7.8l0,0l0,0c4.2-4.3,7.1-9.9,7.7-16
	c2.3,0.7,4.7,1.1,7.2,1.1c3.5,0,7.2-0.7,10.5-2.1l0,0l0,0c5.6-2.3,10.5-6.6,13.3-12c4.7,3.9,10.8,5.9,16.9,6l0,0l0,0l0,0
	c6,0,12.1-2,16.8-5.9c2.8,5.4,7.7,9.5,13.3,11.9l0,0l0,0c3.3,1.4,7,2.1,10.5,2.1l0,0c2.6,0,5.1-0.4,7.4-1.1c0.6,6,3.4,11.8,7.7,16
	l0.1,0.1c4.5,4.4,10.2,7.2,16,7.7c-1.8,5.8-1.3,12.2,1,17.7l0,0c2.5,6,6.8,10.6,12,13.3c-3.9,4.7-5.9,10.8-6,16.9l0,0l0,0
	C327,254.3,329,260.4,332.8,265.1z M324.5,159.1c1.9,0.4,3.7,0.5,5.5,0.5c2.2,0,4.3-0.3,6.4-0.6c0.3,0,0.6-0.1,0.9-0.1
	c0,0.3-0.1,0.6-0.1,0.9c-0.5,3.8-0.9,7,0,11.9c0.5,2.5,1.1,8.2-1.8,12.9c-0.4,0.1-0.9,0.3-1.3,0.5c-4.2,1.7-7.4,4.1-9.8,6.9
	c-0.8,0.1-1.5,0.2-2.3,0.2l0,0c-4.4,0-8.9-2-12.4-5.4c-0.1-0.1-0.2-0.2-0.3-0.3c-3-3.1-6.3-8.7-5.2-14.8c2.9-2.5,5.2-5.8,6.8-9.7
	c0.2-0.4,0.3-0.7,0.4-1.1c2.9-1.8,6.3-2.3,8.8-2.3C321.6,158.7,323.1,158.9,324.5,159.1z M284.5,136.6c4.8-1,7.7-2.7,11-4.6
	c0.3-0.2,0.5-0.3,0.8-0.5c0.1,0.3,0.2,0.6,0.2,0.9c1,3.7,1.8,6.9,4.5,11c1.4,2.2,4.2,7.3,3.3,12.9c-0.3,0.3-0.6,0.5-0.9,0.8
	c-3.1,3.1-5.2,6.5-6.3,10c-3,1.9-6.2,2.4-8.4,2.4l0,0c-2.4,0-5-0.5-7.3-1.4l0,0c-0.1,0-0.2-0.1-0.3-0.1c-3.9-1.7-9-5.6-10.5-11.5
	c1.7-3.3,2.7-7.2,2.7-11.7c0-0.5,0-0.9,0-1.4C276.5,138.8,282,137.2,284.5,136.6z M239.1,131.2c4.1-2.8,6.1-5.4,8.4-8.4
	c0.2-0.2,0.4-0.5,0.6-0.8c0.2,0.3,0.4,0.5,0.6,0.8c2.3,3,4.3,5.6,8.4,8.4c2.1,1.4,6.6,5.1,7.9,10.4c-0.2,0.4-0.4,0.8-0.6,1.3
	c-1.7,4.2-2.3,8.2-2,11.9c-3.6,5-9.8,6.6-14.1,6.7c-0.1,0-0.1,0-0.2,0s-0.1,0-0.2,0c-4.3-0.1-10.6-1.7-14.2-6.8
	c0.3-3.6-0.3-7.6-2-11.7c-0.2-0.4-0.3-0.7-0.5-1.1C232.4,136.3,237,132.6,239.1,131.2z M194.9,143.6c2.7-4.1,3.5-7.3,4.5-11
	c0.1-0.3,0.2-0.6,0.2-0.9c0.3,0.2,0.6,0.3,0.8,0.5c3.3,1.9,6.2,3.5,11,4.6c2.5,0.5,8.2,2.2,11.4,6.8c0,0.4,0,0.8,0,1.2
	c0,4.4,1,8.3,2.6,11.6c-1.4,6.1-6.5,10-10.5,11.7c-0.1,0-0.2,0.1-0.3,0.1c-2.4,0.9-4.9,1.4-7.3,1.4c-2.1,0-5.2-0.4-8.2-2.2
	c-1.1-3.5-3.2-7-6.4-10.2c-0.3-0.3-0.7-0.6-1-0.9C190.8,150.8,193.5,145.7,194.9,143.6z M158.9,159.9c0-0.3-0.1-0.6-0.1-0.9
	c0.3,0,0.6,0.1,0.9,0.1c2.2,0.3,4.2,0.6,6.4,0.6c1.8,0,3.6-0.2,5.5-0.5c1.5-0.3,2.9-0.4,4.3-0.4c2.5,0,5.7,0.4,8.6,2.2
	c0.2,0.4,0.3,0.9,0.5,1.3c1.7,4,4.1,7.3,7,9.8c0.9,6.1-2.3,11.6-5.3,14.6c-0.1,0.1-0.2,0.2-0.3,0.3c-3.5,3.4-8,5.4-12.4,5.4
	c-0.8,0-1.7-0.1-2.5-0.2c-2.4-2.8-5.6-5.1-9.7-6.8c-0.4-0.1-0.7-0.3-1.1-0.4c-3-4.7-2.4-10.6-1.9-13.1
	C159.9,167,159.4,163.7,158.9,159.9z M136.5,211.8c-1-4.8-2.7-7.7-4.6-11c-0.2-0.3-0.3-0.5-0.5-0.8c0.3-0.1,0.6-0.2,0.9-0.2
	c3.7-1,6.9-1.8,11-4.5c2-1.3,6-3.5,10.6-3.5c0.8,0,1.5,0.1,2.2,0.2c0.3,0.3,0.5,0.6,0.8,0.9c3,3,6.4,5.2,10,6.4
	c3.3,5.3,2.5,11.7,0.9,15.7c-0.1,0.1-0.1,0.2-0.2,0.4c-1.9,4.4-5.8,9.1-11.6,10.4c-3.3-1.7-7.2-2.7-11.7-2.7c-0.5,0-0.9,0-1.4,0
	C138.7,219.8,137,214.3,136.5,211.8z M131,257.2c-2.8-4.1-5.4-6.1-8.4-8.4c-0.2-0.2-0.5-0.4-0.8-0.6c0.3-0.2,0.5-0.4,0.8-0.6
	c3-2.3,5.6-4.3,8.4-8.4c1.4-2.1,5.1-6.6,10.4-7.9c0.4,0.2,0.8,0.4,1.3,0.6c3.4,1.4,6.8,2.1,10.1,2.1l0,0c0.6,0,1.2,0,1.8-0.1
	c4.9,3.6,6.6,9.8,6.6,14c0,0.1,0,0.3,0,0.4c-0.1,4.3-1.7,10.6-6.8,14.2c-0.5,0-1.1-0.1-1.6-0.1c-3.3,0-6.7,0.7-10.1,2.1
	c-0.4,0.2-0.7,0.3-1.1,0.5C136.2,263.9,132.5,259.3,131,257.2z M154,304.8c-4.6,0-8.6-2.2-10.6-3.5c-4.1-2.7-7.3-3.5-11-4.5
	c-0.3-0.1-0.6-0.2-0.9-0.2c0.2-0.3,0.3-0.6,0.5-0.8c1.9-3.3,3.5-6.2,4.6-11c0.5-2.5,2.2-8.2,6.8-11.4c0.4,0,0.8,0,1.2,0
	c4.4,0,8.3-1,11.5-2.6c5.8,1.3,9.8,6,11.8,10.5c0,0.1,0.1,0.2,0.1,0.3c1.6,4,2.4,10.3-0.7,15.5c-3.7,1.2-7.1,3.4-10.2,6.4
	c-0.3,0.3-0.6,0.7-1,1C155.3,304.8,154.7,304.8,154,304.8z M171.6,337.3c-1.9-0.4-3.7-0.5-5.5-0.5c-2.2,0-4.3,0.3-6.4,0.6
	c-0.3,0-0.6,0.1-0.9,0.1c0-0.3,0.1-0.6,0.1-0.9c0.5-3.8,0.9-7,0-11.9c-0.5-2.5-1.1-8.2,1.8-12.9c0.4-0.1,0.9-0.3,1.3-0.5
	c4.2-1.7,7.4-4.1,9.8-6.9c0.8-0.1,1.5-0.2,2.3-0.2c4.4,0,8.9,2,12.4,5.4c0.1,0.1,0.2,0.2,0.3,0.3c3,3.1,6.3,8.7,5.2,14.8
	c-2.9,2.5-5.2,5.8-6.8,9.7c-0.2,0.4-0.3,0.7-0.4,1.1c-2.9,1.8-6.3,2.3-8.8,2.3C174.6,337.7,173.1,337.6,171.6,337.3z M211.6,359.8
	c-4.8,1-7.7,2.7-11,4.6c-0.3,0.2-0.5,0.3-0.8,0.5c-0.1-0.3-0.2-0.6-0.2-0.9c-1-3.7-1.8-6.9-4.5-11c-1.4-2.2-4.2-7.3-3.3-12.9
	c0.3-0.3,0.6-0.5,0.9-0.8c3.1-3.1,5.2-6.5,6.3-10c3-1.9,6.2-2.4,8.4-2.4c2.4,0,5,0.5,7.3,1.4c0.1,0,0.2,0.1,0.3,0.1l0,0
	c3.9,1.7,9,5.6,10.5,11.5c-1.7,3.3-2.7,7.2-2.7,11.7c0,0.5,0,0.9,0,1.4C219.6,357.7,214.1,359.3,211.6,359.8z M257,365.3
	c-4.1,2.8-6.1,5.4-8.4,8.4c-0.2,0.2-0.4,0.5-0.6,0.8c-0.2-0.3-0.4-0.5-0.6-0.8c-2.3-3-4.3-5.6-8.4-8.4c-2.1-1.4-6.6-5.1-7.9-10.4
	c0.2-0.4,0.4-0.8,0.6-1.3c1.7-4.2,2.3-8.2,2-11.9c3.6-5,9.8-6.6,14.1-6.7c0.1,0,0.2,0,0.4,0c4.3,0.1,10.6,1.7,14.2,6.8
	c-0.3,3.6,0.3,7.6,2,11.7c0.2,0.4,0.3,0.7,0.5,1.1C263.7,360.1,259.2,363.8,257,365.3z M301.2,352.9c-2.7,4.1-3.5,7.3-4.5,11
	c-0.1,0.3-0.2,0.6-0.2,0.9c-0.3-0.2-0.6-0.3-0.8-0.5c-3.3-1.9-6.2-3.5-11-4.6c-2.5-0.5-8.2-2.2-11.4-6.8c0-0.4,0-0.8,0-1.2
	c0-4.4-1-8.3-2.6-11.6c1.4-6.1,6.5-10,10.5-11.7c0.1,0,0.2-0.1,0.3-0.1c2.4-0.9,4.9-1.4,7.3-1.4c2.1,0,5.2,0.4,8.2,2.2
	c1.1,3.5,3.2,7,6.4,10.2c0.3,0.3,0.7,0.6,1,0.9C305.4,345.7,302.6,350.8,301.2,352.9z M337.2,336.5c0,0.3,0.1,0.6,0.1,0.9
	c-0.3,0-0.6-0.1-0.9-0.1c-2.2-0.3-4.2-0.6-6.4-0.6c-1.8,0-3.6,0.2-5.5,0.5c-1.4,0.3-2.9,0.4-4.3,0.4l0,0c-2.5,0-5.7-0.4-8.6-2.2
	c-0.1-0.4-0.3-0.9-0.5-1.3c-1.7-4-4.1-7.3-7-9.9c-0.9-6.1,2.3-11.6,5.2-14.6c0.1-0.1,0.2-0.2,0.3-0.3c3.5-3.4,8-5.4,12.4-5.4
	c0.8,0,1.7,0.1,2.5,0.2c2.4,2.8,5.6,5.1,9.7,6.8c0.4,0.1,0.7,0.3,1.1,0.4c3,4.7,2.4,10.6,1.9,13.1
	C336.3,329.5,336.7,332.8,337.2,336.5z M359.7,284.7c1,4.8,2.7,7.7,4.6,11c0.2,0.3,0.3,0.5,0.5,0.8c-0.3,0.1-0.6,0.2-0.9,0.2
	c-3.7,1-6.9,1.8-11,4.5c-2,1.3-6,3.5-10.6,3.5c-0.8,0-1.5-0.1-2.2-0.2c-0.3-0.3-0.5-0.6-0.8-0.9c-3-3-6.4-5.2-10-6.4
	c-3.3-5.2-2.5-11.6-0.9-15.7c0.1-0.1,0.1-0.2,0.1-0.3c1.9-4.4,5.8-9.1,11.5-10.4c3.3,1.7,7.2,2.7,11.7,2.7c0.5,0,0.9,0,1.4,0
	C357.5,276.7,359.1,282.2,359.7,284.7z M373.5,248.8c-3,2.3-5.6,4.3-8.4,8.4c-1.4,2.1-5.1,6.6-10.4,7.9c-0.4-0.2-0.8-0.4-1.3-0.6
	c-3.4-1.4-6.8-2.1-10.1-2.1c-0.6,0-1.2,0-1.8,0.1c-4.9-3.6-6.6-9.8-6.6-14c0-0.1,0-0.3,0-0.4c0.1-4.3,1.7-10.6,6.8-14.2
	c0.5,0,1.1,0.1,1.6,0.1l0,0c3.3,0,6.7-0.7,10.1-2.1c0.4-0.2,0.7-0.3,1.1-0.5c5.5,1.2,9.1,5.8,10.6,7.9c2.8,4.1,5.4,6.1,8.4,8.4
	c0.2,0.2,0.5,0.4,0.8,0.6C374,248.4,373.8,248.6,373.5,248.8z"/>
<g>
	<path style="fill:#148E56;" d="M259.3,127.9c-5.2-3.5-6.4-6.6-11.2-12.2l0,0l0,0l0,0l0,0c-4.8,5.6-6.1,8.7-11.2,12.2
		c-4.9,3.4-10,9.2-10,16.7c0,14.2,11,20.7,21.2,20.7l0,0l0,0l0,0l0,0l0,0l0,0c10.2,0,21.2-6.5,21.2-20.7
		C269.3,137,264.2,131.3,259.3,127.9z"/>
	<path style="fill:#148E56;" d="M236.9,368.6c5.2,3.5,6.4,6.6,11.2,12.2l0,0l0,0l0,0l0,0c4.8-5.6,6.1-8.7,11.2-12.2
		c4.9-3.4,10-9.2,10-16.7c0-14.2-11-20.7-21.2-20.7l0,0l0,0l0,0l0,0l0,0l0,0c-10.2,0-21.2,6.5-21.2,20.7
		C226.8,359.4,231.9,365.2,236.9,368.6z"/>
	<path style="fill:#148E56;" d="M368.4,259.5c3.5-5.2,6.6-6.4,12.2-11.2l0,0l0,0l0,0l0,0c-5.6-4.8-8.7-6.1-12.2-11.2
		c-3.4-4.9-9.2-10-16.7-10c-14.2,0-20.7,11-20.7,21.2l0,0l0,0l0,0l0,0l0,0l0,0c0,10.2,6.5,21.2,20.7,21.2
		C359.3,269.5,365.1,264.4,368.4,259.5z"/>
	<path style="fill:#148E56;" d="M127.7,237c-3.5,5.2-6.6,6.4-12.2,11.2l0,0l0,0l0,0l0,0c5.6,4.8,8.7,6.1,12.2,11.2
		c3.4,4.9,9.2,10,16.7,10c14.2,0,20.7-11,20.7-21.2l0,0l0,0l0,0l0,0l0,0l0,0c0-10.2-6.5-21.2-20.7-21.2
		C136.9,227,131.1,232.1,127.7,237z"/>
	<path style="fill:#148E56;" d="M341.1,171.1c-1.1-6.2,0.2-9.2,0.7-16.6l0,0l0,0l0,0l0,0c-7.4,0.6-10.4,1.9-16.6,0.7
		c-5.9-1.1-13.6-0.6-18.9,4.8c-10,10-6.9,22.4,0.3,29.7l0,0l0,0l0,0l0,0l0,0l0,0c7.2,7.2,19.6,10.4,29.7,0.3
		C341.7,184.6,342.2,176.9,341.1,171.1z"/>
	<path style="fill:#148E56;" d="M155,325.4c1.1,6.2-0.2,9.2-0.7,16.6l0,0l0,0l0,0l0,0c7.4-0.5,10.4-1.9,16.6-0.7
		c5.9,1.1,13.6,0.6,18.9-4.8c10-10,6.9-22.4-0.3-29.7l0,0l0,0l0,0l0,0l0,0l0,0c-7.2-7.2-19.6-10.4-29.7-0.3
		C154.4,311.8,153.9,319.5,155,325.4z"/>
	<path style="fill:#148E56;" d="M325.2,341.3c6.2-1.1,9.2,0.2,16.6,0.7l0,0l0,0l0,0l0,0c-0.6-7.4-1.9-10.4-0.7-16.6
		c1.1-5.9,0.6-13.6-4.8-18.9c-10-10-22.4-6.9-29.7,0.3l0,0l0,0l0,0l0,0l0,0l0,0c-7.2,7.2-10.4,19.6-0.3,29.7
		C311.7,341.9,319.4,342.4,325.2,341.3z"/>
	<path style="fill:#148E56;" d="M170.9,155.2c-6.2,1.1-9.2-0.2-16.6-0.7l0,0l0,0l0,0l0,0c0.5,7.4,1.9,10.4,0.7,16.6
		c-1.1,5.9-0.6,13.6,4.8,18.9c10,10,22.4,6.9,29.7-0.3l0,0l0,0l0,0l0,0l0,0l0,0c7.2-7.2,10.4-19.6,0.3-29.7
		C184.5,154.6,176.8,154.1,170.9,155.2z"/>
	<path style="fill:#148E56;" d="M304.4,141.3c-3.4-5.3-3.4-8.5-5.7-15.6l0,0l0,0l0,0l0,0c-6.6,3.3-8.9,5.7-15,7
		c-5.8,1.2-12.7,4.6-15.6,11.6c-5.4,13.1,2.2,23.3,11.7,27.3l0,0l0,0l0,0l0,0l0,0l0,0c9.5,3.9,22.1,2.1,27.5-11.1
		C310.2,153.6,307.7,146.3,304.4,141.3z"/>
	<path style="fill:#148E56;" d="M191.7,355.2c3.4,5.3,3.4,8.5,5.7,15.6l0,0l0,0l0,0l0,0c6.6-3.3,8.9-5.7,15-7
		c5.8-1.2,12.7-4.6,15.6-11.6c5.4-13.1-2.2-23.3-11.7-27.3l0,0l0,0l0,0l0,0l0,0l0,0c-9.5-3.9-22.1-2.1-27.5,11.1
		C186,342.9,188.5,350.2,191.7,355.2z"/>
	<path style="fill:#148E56;" d="M355,304.6c5.3-3.4,8.5-3.4,15.6-5.7l0,0l0,0l0,0l0,0c-3.3-6.6-5.7-8.9-7-15
		c-1.2-5.8-4.6-12.7-11.6-15.6c-13.1-5.4-23.3,2.2-27.3,11.7l0,0l0,0l0,0l0,0l0,0l0,0c-3.9,9.5-2.1,22.1,11.1,27.5
		C342.7,310.3,350,307.8,355,304.6z"/>
	<path style="fill:#148E56;" d="M141.1,191.9c-5.3,3.4-8.5,3.4-15.6,5.7l0,0l0,0l0,0l0,0c3.3,6.6,5.7,8.9,7,15
		c1.2,5.8,4.6,12.7,11.6,15.6c13.1,5.4,23.3-2.2,27.3-11.7l0,0l0,0l0,0l0,0l0,0l0,0c3.9-9.5,2.1-22.1-11.1-27.5
		C153.4,186.1,146.1,188.6,141.1,191.9z"/>
	<path style="fill:#148E56;" d="M363.5,212.5c1.3-6.1,3.7-8.4,7-15l0,0l0,0l0,0l0,0c-7-2.3-10.3-2.3-15.6-5.7
		c-5-3.3-12.3-5.7-19.3-2.8c-13.1,5.4-14.9,18.1-11,27.5l0,0l0,0l0,0l0,0l0,0l0,0c3.9,9.4,14.2,17.1,27.3,11.6
		C358.9,225.2,362.3,218.3,363.5,212.5z"/>
	<path style="fill:#148E56;" d="M132.6,284c-1.3,6.1-3.7,8.4-7,15l0,0l0,0l0,0l0,0c7,2.3,10.3,2.3,15.6,5.7c5,3.3,12.3,5.7,19.3,2.8
		c13.1-5.4,14.9-18.1,11-27.5l0,0l0,0l0,0l0,0l0,0l0,0c-3.9-9.4-14.2-17.1-27.3-11.6C137.2,271.2,133.9,278.2,132.6,284z"/>
	<path style="fill:#148E56;" d="M283.8,363.7c6.1,1.3,8.4,3.7,15,7l0,0l0,0l0,0l0,0c2.3-7,2.3-10.3,5.7-15.6
		c3.3-5,5.7-12.3,2.8-19.3c-5.4-13.1-18.1-14.9-27.5-11l0,0l0,0l0,0l0,0l0,0l0,0c-9.4,3.9-17.1,14.2-11.6,27.3
		C271.1,359.1,278,362.5,283.8,363.7z"/>
	<path style="fill:#148E56;" d="M212.3,132.8c-6.1-1.3-8.4-3.7-15-7l0,0l0,0l0,0l0,0c-2.3,7-2.3,10.3-5.7,15.6
		c-3.3,5-5.7,12.3-2.8,19.3c5.4,13.1,18.1,14.9,27.5,11l0,0l0,0l0,0l0,0l0,0l0,0c9.4-3.9,17.1-14.2,11.6-27.3
		C225.1,137.4,218.1,134,212.3,132.8z"/>
</g>
<path style="fill:#40D393;" d="M152.6,248.1c0-52.8,42.8-95.5,95.5-95.5c52.8,0,95.5,42.8,95.5,95.5c0,52.8-42.8,95.5-95.5,95.5
	C195.3,343.6,152.6,300.9,152.6,248.1z"/>
<path style="fill:#FFFFFF;" d="M158.6,248.1c0-49.4,40.1-89.5,89.5-89.5s89.5,40.1,89.5,89.5s-40.1,89.5-89.5,89.5
	S158.6,297.5,158.6,248.1z"/>
<g>
	<path style="fill:#40D393;" d="M247.2,339.4l-78.8-139.1h159.4L247.2,339.4z M176.4,205.4l70.9,125l72.4-125L176.4,205.4
		L176.4,205.4z"/>
	<path style="fill:#40D393;" d="M249,156.8l78.8,139.1H168.4L249,156.8z M319.8,290.8l-70.9-125l-72.4,125H319.8z"/>
</g>
<g>
	<path style="fill:#148E56;" d="M297.5,300.4c-1.8,1.7-7.2,6-10.6,6c-0.9,0-1.5-0.3-2-1c-0.6-0.9-0.9-2.3-0.9-4.3V211l-12.5,1.4
		v50.1c0,7.7-15.8,22.2-34.5,24.9c-0.8,0.1-1.6,0.2-2.4,0.2c-9.9,0-23.3-6.6-26.8-16.1c-2.7-7.2,0.7-15.1,9.7-22.8
		c1.5-1.3,3.4-2.7,5.4-4.3c8.6-6.5,20.3-15.4,21.3-28l0.1-1.1h-7.6l-0.3,0.6c-0.1,0.1-7,15.1-28.3,27.1
		c-5.2,2.9-16.5,12.9-18.8,25.3c-1.4,7.5,0.7,14.7,6.3,21.4c1.4,1.7,14.7,17,35,17c13.4,0,26.8-6.7,39.7-19.9v18.6
		c0,8.3,4.4,12.8,12.3,12.8c0.3,0,0.7,0,1,0c9.9-0.4,15.1-6.1,15.6-16.8l0.1-2.4L297.5,300.4z"/>
	<polygon style="fill:#148E56;" points="253.6,178.2 264.3,187.9 254.2,197.9 244.2,188.5 	"/>
	<path style="fill:#148E56;" d="M300.8,221.6c-0.2,0,6.9-15.9,6.5-15.9c-28.7,0-72.6,0-101.3,0c0.2,0,8.8,15.9,8.8,15.9H300.8z"/>
</g>
<g>
</g>
<g>
</g>
<g>
</g>
<g>
</g>
<g>
</g>
<g>
</g>
<g>
</g>
<g>
</g>
<g>
</g>
<g>
</g>
<g>
</g>
<g>
</g>
<g>
</g>
<g>
</g>
<g>
</g>
</svg>
