<?xml version="1.0" encoding="iso-8859-1"?>
<!-- Generator: Adobe Illustrator 19.0.0, SVG Export Plug-In . SVG Version: 6.00 Build 0)  -->
<svg version="1.1" id="Layer_1" xmlns="http://www.w3.org/2000/svg" xmlns:xlink="http://www.w3.org/1999/xlink" x="0px" y="0px"
	 viewBox="0 0 496.2 496.2" style="enable-background:new 0 0 496.2 496.2;" xml:space="preserve">
<path style="fill:#D8DBBA;" d="M0,248.1C0,111.1,111.1,0,248.1,0s248.1,111.1,248.1,248.1S385.1,496.2,248.1,496.2S0,385.1,0,248.1z
	"/>
<g>
	<path style="fill:#FFFFFF;" d="M375,245c-1.7-1.4-3.1-2.5-4.3-3.5c-2.7-2.1-4.3-3.3-6.2-6.1c-0.7-1-1.1-2.2-1.6-3.6
		c-0.6-1.8-1.4-4.1-3.2-5.9c0.9-2.3,0.8-4.7,0.7-6.6c-0.1-1.4-0.1-2.7,0.1-3.9c0.7-3.3,1.7-5.1,3.4-8c0.8-1.4,1.7-3,2.7-5
		c0.4-0.7,0.6-1.6,0.5-2.4c-0.1-0.5-0.2-1-0.5-1.5c-0.1-0.3-0.3-0.5-0.5-0.7c-0.5-0.6-1.2-1-1.9-1.2c-2.1-0.7-3.9-1.2-5.5-1.6
		c-3.3-0.9-5.3-1.4-8.1-3.3c-1-0.7-1.9-1.6-2.8-2.7c-1.3-1.4-2.8-3.2-5.1-4.2c-0.1-2.4-1.1-4.6-1.9-6.3c-0.6-1.3-1.2-2.5-1.4-3.7
		c-0.6-3.3-0.4-5.4,0.1-8.7c0.2-1.6,0.5-3.4,0.6-5.7c0.1-0.7,0-1.3-0.3-2c0-0.1-0.1-0.2-0.1-0.3c-0.4-0.8-1-1.4-1.9-1.8
		c-0.7-0.3-1.4-0.4-2.1-0.4c-2.2,0.2-4.1,0.4-5.7,0.6c-1.9,0.3-3.4,0.5-5,0.5c-1.2,0-2.4-0.1-3.7-0.4c-1.2-0.2-2.4-0.8-3.7-1.4
		c-1.8-0.9-3.9-1.9-6.4-1.9c-1-2.3-2.8-3.9-4.2-5.2c-1-0.9-2-1.8-2.7-2.8c-1.8-2.8-2.4-4.8-3.3-8.1c-0.4-1.6-0.9-3.3-1.6-5.5
		c-0.1-0.4-0.3-0.8-0.6-1.2c-0.7-1.1-2-1.7-3.3-1.7c-0.6,0-1.3,0.2-1.8,0.4l0,0c-2.1,1-3.7,2-5.1,2.8c-2.9,1.7-4.7,2.7-8,3.4
		c-0.6,0.1-1.2,0.2-2,0.2c-0.7,0-1.3,0-1.9-0.1c-0.7,0-1.4-0.1-2.1-0.1c-1.3,0-2.9,0.1-4.4,0.7c-1.8-1.7-4-2.5-5.8-3.1
		c-1.3-0.5-2.6-0.9-3.6-1.6c-2.8-1.9-4-3.5-6.1-6.2c-1-1.3-2.1-2.7-3.6-4.4c-0.4-0.5-1-0.9-1.6-1.2c-1.1-0.5-2.4-0.4-3.4,0.1
		c-0.5,0.3-0.9,0.6-1.2,1c-1.5,1.7-2.6,3.2-3.6,4.5c-2.1,2.7-3.3,4.3-6.1,6.2c-1,0.7-2.2,1.1-3.6,1.6c-1.8,0.6-4.1,1.4-5.9,3.2
		c-1.6-0.6-3.1-0.7-4.5-0.7c-0.7,0-1.4,0-2.2,0.1c-0.6,0-1.3,0.1-1.9,0.1c-0.8,0-1.4-0.1-2-0.2c-3.3-0.7-5.1-1.7-8-3.4
		c-1.4-0.8-3-1.7-5-2.8c-1.1-0.6-2.4-0.7-3.6-0.1c-1,0.5-1.8,1.4-2.1,2.4c-0.7,2.2-1.2,4-1.6,5.6c-0.9,3.3-1.4,5.3-3.3,8.1
		c-0.7,1-1.6,1.9-2.7,2.8c-1.4,1.3-3.2,2.9-4.2,5.1c-2.4,0.1-4.5,1-6.3,1.9c-1.3,0.6-2.5,1.2-3.7,1.4c-1.3,0.2-2.5,0.4-3.7,0.4
		c-1.6,0-3.1-0.2-5-0.5c-1.6-0.2-3.5-0.5-5.8-0.6c-1.7-0.2-3.4,0.8-4.1,2.5c-0.3,0.6-0.3,1.3-0.3,1.9c0.2,2.3,0.4,4.1,0.6,5.7
		c0.4,3.4,0.7,5.4,0.1,8.7c-0.2,1.2-0.8,2.4-1.4,3.7c-0.8,1.7-1.9,3.9-1.9,6.4c-2.3,1-3.9,2.8-5.2,4.2c-0.9,1-1.8,2-2.8,2.7
		c-2.8,1.9-4.8,2.4-8.1,3.3c-1.6,0.4-3.4,0.9-5.5,1.6c-1.4,0.4-2.5,1.6-2.8,3.1c-0.2,0.9,0,1.9,0.4,2.7c1,2,1.9,3.6,2.7,5
		c1.7,2.9,2.7,4.7,3.4,8c0.3,1.2,0.2,2.5,0.1,3.9c-0.1,1.9-0.2,4.3,0.6,6.5c-1.7,1.8-2.5,4-3.1,5.8c-0.5,1.3-0.9,2.6-1.6,3.6
		c-1.9,2.8-3.5,4-6.2,6.1c-1.3,1-2.8,2.2-4.6,3.7l0,0c-0.4,0.4-0.8,0.8-1,1.3c-0.6,1.2-0.5,2.7,0.2,3.9c0.2,0.4,0.5,0.7,0.9,1
		c1.7,1.5,3.2,2.6,4.5,3.6c2.7,2.1,4.3,3.3,6.2,6.1c0.7,1,1.1,2.2,1.6,3.6c0.6,1.8,1.4,4.1,3.2,5.9c-0.9,2.3-0.8,4.7-0.7,6.6
		c0.1,1.4,0.1,2.7-0.1,3.9c-0.7,3.3-1.7,5.1-3.4,8c-0.8,1.4-1.7,3-2.7,5c-0.2,0.4-0.4,0.8-0.4,1.3c-0.2,1.3,0.2,2.6,1.1,3.5
		c0.5,0.5,1,0.8,1.6,1c2.2,0.7,4,1.2,5.6,1.6c3.3,0.9,5.3,1.4,8.1,3.3c1,0.7,1.9,1.6,2.8,2.7c1.3,1.4,2.8,3.2,5.1,4.2
		c0.1,2.4,1.1,4.6,1.9,6.3c0.6,1.3,1.2,2.5,1.4,3.7c0.6,3.3,0.4,5.4-0.1,8.7c-0.2,1.6-0.5,3.4-0.6,5.7c-0.1,1.1,0.2,2.2,0.9,3
		c0.9,1.1,2.2,1.5,3.5,1.4c2.2-0.2,4.1-0.4,5.7-0.6c1.9-0.3,3.4-0.5,5-0.5c1.2,0,2.4,0.1,3.7,0.4c1.2,0.2,2.4,0.8,3.7,1.4
		c1.8,0.9,3.9,1.9,6.4,1.9c1,2.3,2.8,3.9,4.2,5.2c1,0.9,2,1.8,2.7,2.8c1.8,2.8,2.4,4.8,3.3,8.1c0.4,1.6,0.9,3.3,1.6,5.5
		c0.2,0.8,0.7,1.5,1.4,2.1c0.2,0.2,0.5,0.3,0.8,0.5c0.5,0.2,1.1,0.4,1.7,0.4c0.1,0,0.1,0,0.2,0c0.6,0,1.2-0.2,1.8-0.5
		c2-1,3.6-1.9,5-2.7c2.9-1.7,4.7-2.7,8-3.4c0.6-0.1,1.2-0.2,2-0.2c0.7,0,1.3,0,1.9,0.1c0.7,0,1.4,0.1,2.1,0.1c1.3,0,2.9-0.1,4.4-0.7
		c1.8,1.7,4,2.5,5.8,3.1c1.3,0.5,2.6,0.9,3.6,1.6c2.8,1.9,4,3.5,6.1,6.2c1,1.3,2.2,2.8,3.7,4.6l0,0c0.1,0.1,0.1,0.2,0.2,0.2
		c0.8,0.8,1.8,1.1,2.8,1.1c0.5,0,1-0.1,1.5-0.3c0.6-0.3,1.1-0.7,1.5-1.2c1.5-1.7,2.6-3.2,3.6-4.5c2.1-2.7,3.3-4.3,6.1-6.2
		c1-0.7,2.2-1.1,3.6-1.6c1.8-0.6,4.1-1.4,5.9-3.2c1.6,0.6,3.1,0.7,4.5,0.7l0,0c0.7,0,1.4,0,2.2-0.1c0.6,0,1.3-0.1,1.9-0.1
		c0.8,0,1.4,0.1,2,0.2c3.3,0.7,5.1,1.7,8,3.4c1.4,0.8,3,1.7,5,2.7c0.6,0.3,1.2,0.5,1.9,0.5c0.1,0,0.1,0,0.2,0
		c1.9-0.1,3.4-1.4,3.8-3.2c0.7-2,1.1-3.7,1.5-5.2c0.9-3.3,1.4-5.3,3.3-8.1c0.7-1,1.6-1.9,2.7-2.8c1.4-1.3,3.2-2.9,4.2-5.1
		c2.4-0.1,4.5-1,6.3-1.9c1.3-0.6,2.5-1.2,3.7-1.4c1.3-0.2,2.5-0.4,3.7-0.4c1.6,0,3.1,0.2,5,0.5c1.6,0.2,3.4,0.5,5.7,0.6
		c0.2,0,0.4,0,0.6,0c2.1-0.1,3.8-1.8,3.8-4c0-0.3,0-0.5-0.1-0.7c-0.2-2.1-0.4-3.8-0.6-5.4c-0.4-3.4-0.7-5.4-0.1-8.7
		c0.2-1.2,0.8-2.4,1.4-3.7c0.8-1.7,1.9-3.9,1.9-6.4c2.3-1,3.9-2.8,5.2-4.2c0.9-1,1.8-2,2.8-2.7c2.8-1.8,4.8-2.4,8.1-3.3
		c1.5-0.4,3.3-0.9,5.4-1.6c1.7-0.4,3-2,3-3.9c0-0.8-0.2-1.5-0.6-2.1c-1-1.9-1.9-3.4-2.6-4.8c-1.7-2.9-2.7-4.7-3.4-8
		c-0.3-1.2-0.2-2.5-0.1-3.9c0.1-1.9,0.2-4.3-0.6-6.5c1.7-1.8,2.5-4,3.1-5.8c0.5-1.3,0.9-2.6,1.6-3.6c1.9-2.8,3.5-4,6.2-6.1
		c1.2-1,2.7-2,4.3-3.4c1-0.7,1.7-1.9,1.7-3.3C376.7,246.9,376,245.7,375,245z"/>
	<path style="fill:#FFFFFF;" d="M298.7,201.7h-49.4c0.6-0.2,1.1-0.5,1.6-1l10.1-10.1c0.8-0.8,1.2-1.8,1.2-2.9c0-1.1-0.5-2.1-1.3-2.9
		l-10.7-9.7c-0.8-0.7-1.8-1.1-2.9-1s-2.1,0.5-2.8,1.3l-9.4,10.4c-1.5,1.6-1.4,4.1,0.2,5.6l10.1,9.4c0.4,0.4,0.9,0.7,1.5,0.9h-49.4
		c-2.2,0-4,1.8-4,4c0,0.9,0.3,1.8,0.8,2.4c0.9,1.4,5.4,9.7,8.4,15.4c0.7,1.3,2.1,2.1,3.5,2.1h86c1.9,0,3.5-1.3,3.9-3
		c0.3-0.8,1.5-3.5,2.4-5.7s1.9-4.6,2.7-6.4c1.5-3.7,2.1-5.1,0.8-7C301.3,202.4,300.1,201.7,298.7,201.7z M243.7,188.3l4.1-4.5
		l4.6,4.2l-4.4,4.4L243.7,188.3z M291.2,213.7c-0.6,1.4-1.2,2.8-1.7,3.9h-80.9c-0.8-1.5-2-3.7-3.2-5.9c-0.4-0.7-0.8-1.4-1.1-2h88.6
		C292.3,211.1,291.7,212.6,291.2,213.7z"/>
</g>
<g>
	<path style="fill:#EDC92F;" d="M258.6,135.1c-4.9-3.3-6-6.2-10.5-11.5l0,0l0,0l0,0l0,0c-4.5,5.3-5.7,8.2-10.5,11.5
		c-4.6,3.2-10.7,1.9-10.7,9.5c0,14.2,11,20.7,21.2,20.7l0,0l0,0l0,0l0,0l0,0l0,0c10.2,0,21.2-6.5,21.2-20.7
		C269.3,137,263.2,138.3,258.6,135.1z"/>
	<path style="fill:#EDC92F;" d="M237.5,361.3c4.9,3.3,6,6.2,10.5,11.5l0,0l0,0l0,0l0,0c4.5-5.3,5.7-8.2,10.5-11.5
		c4.6-3.2,10.7-1.9,10.7-9.5c0-14.2-11-20.7-21.2-20.7l0,0l0,0l0,0l0,0l0,0l0,0c-10.2,0-21.2,6.5-21.2,20.7
		C226.8,359.4,232.9,358.1,237.5,361.3z"/>
	<path style="fill:#EDC92F;" d="M361.2,258.8c3.3-4.9,6.2-6,11.5-10.5l0,0l0,0l0,0l0,0c-5.3-4.5-8.2-5.7-11.5-10.5
		c-3.2-4.6-1.9-10.7-9.5-10.7c-14.2,0-20.7,11-20.7,21.2l0,0l0,0l0,0l0,0l0,0l0,0c0,10.2,6.5,21.2,20.7,21.2
		C359.3,269.5,358,263.4,361.2,258.8z"/>
	<path style="fill:#EDC92F;" d="M135,237.7c-3.3,4.9-6.2,6-11.5,10.5l0,0l0,0l0,0l0,0c5.3,4.5,8.2,5.7,11.5,10.5
		c3.2,4.6,1.9,10.7,9.5,10.7c14.2,0,20.7-11,20.7-21.2l0,0l0,0l0,0l0,0l0,0l0,0c0-10.2-6.5-21.2-20.7-21.2
		C136.9,227,138.2,233.1,135,237.7z"/>
	<path style="fill:#EDC92F;" d="M335.5,175.7c-1.1-5.8,0.1-8.6,0.7-15.6l0,0l0,0l0,0l0,0c-6.9,0.5-9.8,1.7-15.6,0.7
		c-5.5-1-8.9-6.2-14.3-0.9c-10,10-6.9,22.4,0.3,29.7l0,0l0,0l0,0l0,0l0,0l0,0c7.2,7.2,19.6,10.4,29.7,0.3
		C341.7,184.6,336.5,181.2,335.5,175.7z"/>
	<path style="fill:#EDC92F;" d="M160.7,320.7c1.1,5.8-0.1,8.6-0.7,15.6l0,0l0,0l0,0l0,0c6.9-0.5,9.8-1.7,15.6-0.7
		c5.5,1,8.9,6.2,14.3,0.9c10-10,6.9-22.4-0.3-29.7l0,0l0,0l0,0l0,0l0,0l0,0c-7.2-7.2-19.6-10.4-29.7-0.3
		C154.4,311.8,159.6,315.2,160.7,320.7z"/>
	<path style="fill:#EDC92F;" d="M320.6,335.7c5.8-1.1,8.6,0.1,15.6,0.7l0,0l0,0l0,0l0,0c-0.5-6.9-1.7-9.8-0.7-15.6
		c1-5.5,6.2-8.9,0.9-14.3c-10-10-22.4-6.9-29.7,0.3l0,0l0,0l0,0l0,0l0,0l0,0c-7.2,7.2-10.4,19.6-0.3,29.7
		C311.7,341.9,315.1,336.7,320.6,335.7z"/>
	<path style="fill:#EDC92F;" d="M175.6,160.8c-5.8,1.1-8.6-0.1-15.6-0.7l0,0l0,0l0,0l0,0c0.5,6.9,1.7,9.8,0.7,15.6
		c-1,5.5-6.2,8.9-0.9,14.3c10,10,22.4,6.9,29.7-0.3l0,0l0,0l0,0l0,0l0,0l0,0c7.2-7.2,10.4-19.6,0.3-29.7
		C184.5,154.6,181.1,159.8,175.6,160.8z"/>
	<path style="fill:#EDC92F;" d="M301,147.7c-3.2-4.9-3.2-8-5.4-14.6l0,0l0,0l0,0l0,0c-6.2,3.1-8.4,5.4-14.1,6.6
		c-5.5,1.2-10.6-2.3-13.5,4.7c-5.4,13.1,2.2,23.3,11.7,27.3l0,0l0,0l0,0l0,0l0,0l0,0c9.5,3.9,22.1,2.1,27.5-11.1
		C310.2,153.6,304.1,152.4,301,147.7z"/>
	<path style="fill:#EDC92F;" d="M195.1,348.7c3.2,4.9,3.2,8,5.4,14.6l0,0l0,0l0,0l0,0c6.2-3.1,8.4-5.4,14.1-6.6
		c5.5-1.2,10.6,2.3,13.5-4.7c5.4-13.1-2.2-23.3-11.7-27.3l0,0l0,0l0,0l0,0l0,0l0,0c-9.5-3.9-22.1-2.1-27.5,11.1
		C186,342.9,192.1,344,195.1,348.7z"/>
	<path style="fill:#EDC92F;" d="M348.6,301.2c4.9-3.2,8-3.2,14.6-5.4l0,0l0,0l0,0l0,0c-3.1-6.2-5.4-8.4-6.6-14.1
		c-1.2-5.5,2.3-10.6-4.7-13.5c-13.1-5.4-23.3,2.2-27.3,11.7l0,0l0,0l0,0l0,0l0,0l0,0c-3.9,9.5-2.1,22.1,11.1,27.5
		C342.7,310.3,343.9,304.2,348.6,301.2z"/>
	<path style="fill:#EDC92F;" d="M147.6,195.3c-4.9,3.2-8,3.2-14.6,5.4l0,0l0,0l0,0l0,0c3.1,6.2,5.4,8.4,6.6,14.1
		c1.2,5.5-2.3,10.6,4.7,13.5c13.1,5.4,23.3-2.2,27.3-11.7l0,0l0,0l0,0l0,0l0,0l0,0c3.9-9.5,2.1-22.1-11.1-27.5
		C153.4,186.1,152.3,192.2,147.6,195.3z"/>
	<path style="fill:#EDC92F;" d="M356.6,214.6c1.2-5.8,3.4-7.9,6.6-14.1l0,0l0,0l0,0l0,0c-6.6-2.2-9.7-2.1-14.6-5.3
		c-4.7-3.1-5.8-9.1-12.8-6.2c-13.1,5.4-14.9,18.1-11,27.5l0,0l0,0l0,0l0,0l0,0l0,0c3.9,9.4,14.2,17.1,27.3,11.6
		C358.9,225.2,355.4,220.1,356.6,214.6z"/>
	<path style="fill:#EDC92F;" d="M139.6,281.8c-1.2,5.8-3.4,7.9-6.6,14.1l0,0l0,0l0,0l0,0c6.6,2.2,9.7,2.1,14.6,5.3
		c4.7,3.1,5.8,9.1,12.8,6.2c13.1-5.4,14.9-18.1,11-27.5l0,0l0,0l0,0l0,0l0,0l0,0c-3.9-9.4-14.2-17.1-27.3-11.6
		C137.2,271.2,140.7,276.4,139.6,281.8z"/>
	<path style="fill:#EDC92F;" d="M281.7,356.7c5.8,1.2,7.9,3.4,14.1,6.6l0,0l0,0l0,0l0,0c2.2-6.6,2.1-9.7,5.3-14.6
		c3.1-4.7,9.1-5.8,6.2-12.8c-5.4-13.1-18.1-14.9-27.5-11l0,0l0,0l0,0l0,0l0,0l0,0c-9.4,3.9-17.1,14.2-11.6,27.3
		C271.1,359.1,276.2,355.6,281.7,356.7z"/>
	<path style="fill:#EDC92F;" d="M214.5,139.7c-5.8-1.2-7.9-3.4-14.1-6.6l0,0l0,0l0,0l0,0c-2.2,6.6-2.1,9.7-5.3,14.6
		c-3.1,4.7-9.1,5.8-6.2,12.8c5.4,13.1,18.1,14.9,27.5,11l0,0l0,0l0,0l0,0l0,0l0,0c9.4-3.9,17.1-14.2,11.6-27.3
		C225.1,137.4,220,140.9,214.5,139.7z"/>
</g>
<path style="fill:#CCAC27;" d="M152.6,248.1c0-52.8,42.8-95.5,95.5-95.5c52.8,0,95.5,42.8,95.5,95.5c0,52.8-42.8,95.5-95.5,95.5
	C195.3,343.6,152.6,300.9,152.6,248.1z"/>
<path style="fill:#FFFFFF;" d="M158.6,248.1c0-49.4,40.1-89.5,89.5-89.5s89.5,40.1,89.5,89.5s-40.1,89.5-89.5,89.5
	S158.6,297.5,158.6,248.1z"/>
<path style="fill:#F7D959;" d="M247.2,335.6l-80.1-121.2h162L247.2,335.6z M175.3,218.8l72,109l73.6-109L175.3,218.8L175.3,218.8z"
	/>
<g>
	<polygon style="fill:#EDC92F;" points="247.5,186.2 258.2,195.9 248.1,206 238,196.6 	"/>
	<path style="fill:#EDC92F;" d="M292.2,229.7c-0.2,0,6.9-15.9,6.5-15.9c-28.7,0-72.6,0-101.3,0c0.2,0,8.8,15.9,8.8,15.9H292.2z"/>
	<path style="fill:#EDC92F;" d="M271,227.6v26.9c0,0,1.1,10.3-9,2.9c0,0-19.9-18-30.7-4.4c-11.2,14.1-1.7,48.9,33.7,47.9
		c5.1-0.2,25.4-3,27.7-14.2c0,0,3.4,13-14.2,19.4c-7.9,2.9-33.1,9.1-56.3-4.7c0,0-43.6-26.8-12.5-57.4c5-4.9,26.9-18.7,48.6,2.2
		l-2.2-19.4L271,227.6z"/>
</g>
<g>
</g>
<g>
</g>
<g>
</g>
<g>
</g>
<g>
</g>
<g>
</g>
<g>
</g>
<g>
</g>
<g>
</g>
<g>
</g>
<g>
</g>
<g>
</g>
<g>
</g>
<g>
</g>
<g>
</g>
</svg>
