<?xml version="1.0" encoding="iso-8859-1"?>
<!-- Generator: Adobe Illustrator 19.0.0, SVG Export Plug-In . SVG Version: 6.00 Build 0)  -->
<svg version="1.1" id="Layer_1" xmlns="http://www.w3.org/2000/svg" xmlns:xlink="http://www.w3.org/1999/xlink" x="0px" y="0px"
	 viewBox="0 0 496.2 496.2" style="enable-background:new 0 0 496.2 496.2;" xml:space="preserve">
<path style="fill:#D8DBBA;" d="M0,248.1C0,111.1,111.1,0,248.1,0s248.1,111.1,248.1,248.1S385.1,496.2,248.1,496.2S0,385.1,0,248.1z
	"/>
<g>
	<path style="fill:#E83131;" d="M287,127c-17.9-10.1-22.1-18.7-38.9-34.7l0,0l0,0l0,0l0,0c-16.8,15.9-21,24.6-38.9,34.7
		c-17.1,9.6-34.7,26-34.7,47.5c0,40.3,38.1,58.8,73.5,58.9l0,0l0,0l0,0l0,0l0,0l0,0c35.4-0.1,73.5-18.6,73.5-58.9
		C321.7,153,304,136.6,287,127z"/>
	<path style="fill:#E83131;" d="M209.2,369.2c17.9,10.1,22.1,18.7,38.9,34.7l0,0l0,0l0,0l0,0c16.8-15.9,21-24.6,38.9-34.7
		c17.1-9.6,34.7-26,34.7-47.5c0-40.3-38.1-58.8-73.5-58.9l0,0l0,0l0,0l0,0l0,0l0,0c-35.4,0.1-73.5,18.6-73.5,58.9
		C174.5,343.2,192.2,359.6,209.2,369.2z"/>
	<path style="fill:#E83131;" d="M369.2,287c10.1-17.9,18.7-22.1,34.7-38.9l0,0l0,0l0,0l0,0c-15.9-16.8-24.6-21-34.7-38.9
		c-9.6-17.1-26-34.7-47.5-34.7c-40.3,0-58.8,38.1-58.9,73.5l0,0l0,0l0,0l0,0l0,0l0,0c0.1,35.4,18.6,73.5,58.9,73.5
		C343.2,321.7,359.6,304,369.2,287z"/>
	<path style="fill:#E83131;" d="M127,209.2c-10.1,17.9-18.7,22.1-34.7,38.9l0,0l0,0l0,0l0,0c15.9,16.8,24.6,21,34.7,38.9
		c9.6,17.1,26,34.7,47.5,34.7c40.3,0,58.8-38.1,58.9-73.5l0,0l0,0l0,0l0,0l0,0l0,0c-0.1-35.4-18.6-73.5-58.9-73.5
		C153,174.5,136.6,192.2,127,209.2z"/>
</g>
<path style="fill:#DD1212;" d="M152.6,248.1c0-52.8,42.8-95.5,95.5-95.5c52.8,0,95.5,42.8,95.5,95.5c0,52.8-42.8,95.5-95.5,95.5
	C195.3,343.6,152.6,300.9,152.6,248.1z"/>
<path style="fill:#FFFFFF;" d="M158.6,248.1c0-49.4,40.1-89.5,89.5-89.5s89.5,40.1,89.5,89.5s-40.1,89.5-89.5,89.5
	S158.6,297.5,158.6,248.1z"/>
<path style="fill:#F99191;" d="M184.4,184.4v127.3h127.3V184.4H184.4z M306.7,306.7H189.5V189.5h117.2L306.7,306.7L306.7,306.7z"/>
<g>
	<polygon style="fill:#E83131;" points="281.5,190.2 292.2,200 282.2,210 272.1,200.6 	"/>
	<path style="fill:#E83131;" d="M293.3,233.7c-0.2,0,6.9-15.9,6.5-15.9c-28.7,0-72.6,0-101.3,0c0.2,0,8.8,15.9,8.8,15.9H293.3z"/>
	<path style="fill:#E83131;" d="M241,251.3c-1.1,1.8-3.5,6.6-3.8,8.9c-5.6-6.5-10.6-14-22.3-13.5c-10,0.4-17.4,8.5-18.4,18.4
		c-1.2,11.8,4.9,22.5,9.6,30.5l15.2-8.5c-2.3-5.4-8-9.6-8.9-17c-0.8-6.9,1.4-14.2,6.4-14.9c11.2-1.5,11.9,14,9.9,24.8l19.1-6
		c-2.2-5.9-2.8-14.6,1.1-18.4c7.9-8,21.5,0,24.1,7.4c1.4,3.9,1.7,9,1.4,12.8c-1.4,19.5-20.2,26.7-39.3,29.4c0.6,1,11.7,0.7,11.7,0.7
		c24.8-1.8,40.2-14,44.3-35.4c1.8-9.1-3.9-18.7-8.1-22.7c-9.7-9.3-26-6.4-36.5-1.8C243.3,248,242,249.8,241,251.3z"/>
	
		<rect x="265.718" y="226.9" transform="matrix(-0.8849 -0.4657 0.4657 -0.8849 402.4348 574.7306)" style="fill:#E83131;" width="13" height="21.499"/>
</g>
<g>
</g>
<g>
</g>
<g>
</g>
<g>
</g>
<g>
</g>
<g>
</g>
<g>
</g>
<g>
</g>
<g>
</g>
<g>
</g>
<g>
</g>
<g>
</g>
<g>
</g>
<g>
</g>
<g>
</g>
</svg>
