<?xml version="1.0" encoding="iso-8859-1"?>
<!-- Generator: Adobe Illustrator 19.0.0, SVG Export Plug-In . SVG Version: 6.00 Build 0)  -->
<svg version="1.1" id="Layer_1" xmlns="http://www.w3.org/2000/svg" xmlns:xlink="http://www.w3.org/1999/xlink" x="0px" y="0px"
	 viewBox="0 0 496.2 496.2" style="enable-background:new 0 0 496.2 496.2;" xml:space="preserve">
<path style="fill:#A3D5E0;" d="M0,248.1C0,111.1,111.1,0,248.1,0s248.1,111.1,248.1,248.1S385.1,496.2,248.1,496.2S0,385.1,0,248.1z
	"/>
<ellipse style="fill:#2F3030;" cx="252.6" cy="333.2" rx="132" ry="57.6"/>
<path style="fill:#3E4142;" d="M384.6,333.2c0,31.8-264,31.8-264,0s59.1-57.6,132-57.6S384.6,301.3,384.6,333.2z"/>
<ellipse transform="matrix(0.059 -0.9983 0.9983 0.059 -24.4146 487.9227)" style="fill:#2F3030;" cx="246.611" cy="256.912" rx="47.102" ry="120.205"/>
<path style="fill:#3E4142;" d="M366.6,264c-1.5,26-241.5,11.8-240-14.2c1.5-26,56.5-43.9,122.8-39.9
	C315.6,213.7,368.1,238,366.6,264z"/>
<ellipse transform="matrix(-0.0387 -0.9992 0.9992 -0.0387 73.6712 445.8506)" style="fill:#2F3030;" cx="251.287" cy="187.49" rx="41.798" ry="104.895"/>
<path style="fill:#3E4142;" d="M356.1,183.4c0.9,23.1-208.8,31.2-209.7,8.1s45.3-43.6,103.2-45.9
	C307.6,143.4,355.3,160.3,356.1,183.4z"/>
<ellipse transform="matrix(0.0698 -0.9976 0.9976 0.0698 99.7241 377.7506)" style="fill:#2F3030;" cx="252.408" cy="135.404" rx="35.501" ry="60.502"/>
<path style="fill:#3E4142;" d="M312.8,139.6c-1.4,19.6-122.1,11.1-120.7-8.4c1.4-19.6,29.5-33.6,62.8-31.2
	C288.2,102.3,314.1,120,312.8,139.6z"/>
<g>
</g>
<g>
</g>
<g>
</g>
<g>
</g>
<g>
</g>
<g>
</g>
<g>
</g>
<g>
</g>
<g>
</g>
<g>
</g>
<g>
</g>
<g>
</g>
<g>
</g>
<g>
</g>
<g>
</g>
</svg>
