<?xml version="1.0" encoding="iso-8859-1"?>
<!-- Generator: Adobe Illustrator 19.0.0, SVG Export Plug-In . SVG Version: 6.00 Build 0)  -->
<svg version="1.1" id="Layer_1" xmlns="http://www.w3.org/2000/svg" xmlns:xlink="http://www.w3.org/1999/xlink" x="0px" y="0px"
	 viewBox="0 0 496.2 496.2" style="enable-background:new 0 0 496.2 496.2;" xml:space="preserve">
<path style="fill:#EDC92F;" d="M0,248.1C0,111.1,111.1,0,248.1,0s248.1,111.1,248.1,248.1S385.1,496.2,248.1,496.2S0,385.1,0,248.1z
	"/>
<path style="fill:#2EAA2E;" d="M138.6,196.4c9.2,8.6,11.3,20.3,11.3,20.3s-25.4-4.6-34.7-13.1c-9.2-8.5-10.5-21.6-10.5-21.6
	S129.3,187.9,138.6,196.4z"/>
<path style="fill:#196619;" d="M161.1,231.8c8.5,5.5,11.8,14.6,11.8,14.6s-20.9-0.1-29.4-5.7c-8.5-5.5-11.4-15.7-11.4-15.7
	S152.6,226.3,161.1,231.8z"/>
<path style="fill:#188C18;" d="M120.1,288.4c13.7-5.6,27.4-2,27.4-2S130,311.3,116.3,317c-13.7,5.6-28.3,0.6-28.3,0.6
	S106.4,294,120.1,288.4z"/>
<path style="fill:#2EAA2E;" d="M374.1,216.2c7.8-8.7,18.6-10.8,18.6-10.8s-3.8,23.6-11.6,32.3c-7.8,8.7-19.8,10.1-19.8,10.1
	S366.4,224.9,374.1,216.2z"/>
<path style="fill:#196619;" d="M410.4,227.7c-4.8,9-13.6,13-13.6,13s-1.6-20.8,3.2-29.8c4.8-9,14.7-12.7,14.7-12.7
	S415.2,218.8,410.4,227.7z"/>
<path style="fill:#188C18;" d="M349.2,238.4c-8.6,12-22.1,16.2-22.1,16.2s1.6-30.4,10.3-42.5c8.6-12,23.7-15.5,23.7-15.5
	S357.8,226.3,349.2,238.4z"/>
<path style="fill:#2EAA2E;" d="M342.7,187.5c-6.4,9.6-16.7,13.2-16.7,13.2s0.4-23.6,6.8-33.2c6.4-9.6,18-12.7,18-12.7
	S349.1,177.9,342.7,187.5z"/>
<path style="fill:#196619;" d="M304,155.4c-1.5,10.1-8.4,16.8-8.4,16.8s-8.5-19-7-29.1s9.6-16.9,9.6-16.9S305.5,145.3,304,155.4z"/>
<g>
	<path style="fill:#188C18;" d="M275.4,163.6c-4,14.3-15.2,22.8-15.2,22.8s-8.9-29.1-4.9-43.4s17-22.7,17-22.7
		S279.4,149.3,275.4,163.6z"/>
	<path style="fill:#188C18;" d="M226,112.6c-2.5,11.4-10.9,18.6-10.9,18.6s-8.3-22.5-5.8-33.8c2.5-11.4,12.3-18.6,12.3-18.6
		S228.5,101.2,226,112.6z"/>
</g>
<path style="fill:#2EAA2E;" d="M199.6,183.2c3.8,12-0.3,23.2-0.3,23.2s-19.8-16.6-23.5-28.6c-3.8-12,1.6-23.9,1.6-23.9
	S195.9,171.3,199.6,183.2z"/>
<path style="fill:#196619;" d="M222.4,174.9c-1.1,10.1-7.8,17.1-7.8,17.1s-9.2-18.7-8.1-28.8c1.1-10.1,9-17.2,9-17.2
	S223.5,164.8,222.4,174.9z"/>
<path style="fill:#188C18;" d="M293.9,198.7c0,10.2-5.9,17.8-5.9,17.8s-11.2-17.6-11.1-27.8c0-10.2,7.1-18.1,7.1-18.1
	S293.9,188.6,293.9,198.7z"/>
<path style="fill:#2EAA2E;" d="M204.4,132.7c0.6,14.8-7.4,26.4-7.4,26.4s-17.4-25-18.1-39.8c-0.6-14.8,9.1-26.8,9.1-26.8
	S203.8,117.9,204.4,132.7z"/>
<path style="fill:#196619;" d="M303.7,191.1c-0.3-10.2,5.3-18,5.3-18s11.7,17.3,12,27.4c0.3,10.2-6.5,18.3-6.5,18.3
	S304,201.3,303.7,191.1z"/>
<path style="fill:#188C18;" d="M428.9,247.1c-8.7,1.8-16.4-1.8-16.4-1.8s13.1-12.8,21.8-14.7c8.7-1.8,16.8,2.8,16.8,2.8
	S437.6,245.3,428.9,247.1z"/>
<path style="fill:#2EAA2E;" d="M272.6,211.3c6.9,13.2,4.5,27.1,4.5,27.1s-26.4-15.2-33.3-28.3c-6.9-13.2-3.1-28.2-3.1-28.2
	S265.8,198.1,272.6,211.3z"/>
<path style="fill:#188C18;" d="M116.8,232.6c9.9,2.1,16.3,9.4,16.3,9.4s-19.5,7.4-29.5,5.3c-9.9-2.1-16.3-10.6-16.3-10.6
	S106.9,230.6,116.8,232.6z"/>
<path style="fill:#2EAA2E;" d="M244.2,149c-0.5,11.6-7.5,20.2-7.5,20.2s-12.1-20.7-11.6-32.3s8.9-20.4,8.9-20.4
	S244.7,137.4,244.2,149z"/>
<path style="fill:#196619;" d="M391.5,165.5c11.8-9,25.9-9,25.9-9s-10.4,28.6-22.2,37.6S368,202,368,202S379.7,174.5,391.5,165.5z"
	/>
<path style="fill:#188C18;" d="M424.3,270c8.5,5.6,11.7,14.7,11.7,14.7s-20.9-0.3-29.3-6c-8.5-5.6-11.2-15.8-11.2-15.8
	S415.8,264.4,424.3,270z"/>
<path style="fill:#2EAA2E;" d="M399.2,288.3c9.2,8.9,11.1,20.9,11.1,20.9s-25.8-5.2-35-14.1S365,272.9,365,272.9
	S390,279.4,399.2,288.3z"/>
<path style="fill:#196619;" d="M345.7,290.9c-14.7-7-29.8-3.9-29.8-3.9s17.6,28.3,32.3,35.3c14.7,7,30.9,2.4,30.9,2.4
	S360.4,297.9,345.7,290.9z"/>
<path style="fill:#188C18;" d="M144.2,143.2c2.9,11.4-1.5,21.8-1.5,21.8s-17.6-16.6-20.5-28.1c-2.9-11.4,2.8-22.4,2.8-22.4
	S141.3,131.8,144.2,143.2z"/>
<path style="fill:#66442A;" d="M403.1,247.1c-0.6-2.6-18.4,3.9-18.4,3.9c-24.6,3.7-35.8,8.3-35.8,8.3c-13.1,1.4-35.7,6.7-44.3,9.3
	c-0.1-0.4-0.2-0.8-0.3-1.2l0.4-4c0,0,0.8-3.3,2.6-6.9c2.3,0.6,4.4,0.8,5.9,0.7c5.2-0.2,3.8-1.9,3.5-4c0-0.1,0.2-0.4,0.2-0.4
	c0.3-0.1,0.5-0.3,0.6-0.5c0.2-0.7-0.5-1-0.5-1c0.3-0.2,0.8-0.5,0.3-1.1l-0.1-0.1l0,0c0,0-0.2-0.6-0.3-1c0-0.2,0-0.4,0.2-0.5
	c0.7-0.3,1.4-0.6,1.7-0.9c0.9-1.1-2.7-6.7-1.5-8.5c2.3-3.4,1-6.7-0.3-8.8c-1.4-5.5-5.6-8.8-15.1-8.2c-0.6,0-1.2,0.1-1.7,0.3
	c-0.2-0.3-0.4-0.6-0.7-0.8c-2.3-1.7-6.9,0.1-10.2,4.2c-3.3,4.1-4.2,8.8-1.9,10.5c0.5,0.4,1.1,0.5,1.7,0.5c-0.1,4.2,1.6,8.9,5.9,13.7
	c0.5,0.6,1.5,1.2,2.8,1.1c0.3,0.3,0.6,0.5,0.9,0.7c-2.1,2.5-4.5,4.2-5.1,4.6c-1.6-0.1-3.2,0.2-4.6,0.8l-0.1-0.1
	c-5.1-3.9-7.3-4.4-11.9-7.9c-4.2-3.8-21.5-15-25.5-18c-0.5-0.4-29-22.5-29-22.5s-0.4-0.4-1-1.3c1.2-0.6,3-1.4,4-3.4
	c1.1-2.2,0.3-3.9,0.4-5c0.2-2.3,7.3-12.6,5.1-14.6s-6.6,4.2-7.6,5.5c-1.3,1.8-5.3,8.6-6.8,11.1c-1.5-1.3-3.2-2.3-4.6-2.8
	c-2.4-0.8-5.6,0-7.4,1.9c-1.1,1.1,1.6,3.9,4.5,6.5c-0.3,0-0.5,0.1-0.7,0.3c-0.9,0.7-1.4,1.1,1.2,2.5c-5.3,6.2-12.2,14.6-15.8,20l0,0
	c-1.4,2.1-24.6,27.6-23.3,35.3c0.1,0.5,0.2,0.9,0.4,1.3c3.8,9.7,32.5,30.9,39.2,35.5c4.3,3,7.2,4.9,12.3,6.9
	c0.9,9.9,1.9,20.3,2.6,26.3c0.7,6.5,1.8,17,1.8,17c-1,8.1-2.2,15.8-2,22.9c0,0.1,0,0.2,0,0.3c0.1,1.8,0.2,3.5,0.3,5.1
	c0.6,7.2,2.3,25,2.9,31c0.1,1.2-0.8,2.8-1.2,4.7c-0.5,2.4,2,3.8,4.6,3.9c1.1,0,11.9-0.6,14.8,0.1s6-1.8,6.2-3.4
	c0.3-2.7-17.4-3.5-17.4-3.5c0.7-3.7,3.4-28.1,4.1-38.4l0,0c0.2-2.6,3.5-22.4,3.5-22.4c0.6-4.5,4-25,5.3-40.4c0,0,0,0,0.1,0
	c31.6-0.5,43.3-6.3,50.9-19.7c0,0,4.8-1.9,6.2-5.7c0.7-1.9,1.1-3.7,1.3-5.4c5.3-0.8,10.1-2.1,15.3-3.2c5.5-1.2,24.5-8.7,29.2-10.3
	c0.7-0.2,35.2-11.3,35.2-11.3s1.4-0.3,3.9,0C393.3,257.4,403.6,249.7,403.1,247.1z M250.1,287.3c-1.5-0.8-5.8-5.7-13-7.5
	c-4.3-1.1-9.8-1.5-14.7-1.6h-0.1c-12.1-7.6-27.5-13.9-32.8-15.9c1.2-1,2.4-2.2,3.5-3.4c2.8-3.2,9.7-15.3,13.1-21.7
	c0-0.1,0.1-0.1,0.1-0.2c0.8-1.6,1.6-3.1,2.3-4.6c2.3-5,6.5-12.8,9.5-18.6l0.3,0.1c17.1,18.1,26.9,24.7,26.9,24.7
	c9.5,11,29,28.1,34.3,31.7c-1.4,2.6-3.1,5.9-5,10C272.3,284.6,257.5,289.1,250.1,287.3z"/>
<path style="fill:#196619;" d="M334.2,135c-4.5,14.1-16,22.3-16,22.3s-7.9-29.4-3.5-43.5c4.5-14.1,17.7-22.1,17.7-22.1
	S338.7,120.9,334.2,135z"/>
<path style="fill:#188C18;" d="M296,115.4c-4,10.6-13.1,16.3-13.1,16.3s-4.8-22.7-0.8-33.3s14.4-16.1,14.4-16.1S300,104.8,296,115.4
	z"/>
<g>
	<path style="fill:#196619;" d="M168,159.1c1.3,8.7-2.8,15.9-2.8,15.9s-11.7-13.6-13-22.2c-1.3-8.7,3.7-16.3,3.7-16.3
		S166.8,150.4,168,159.1z"/>
	<path style="fill:#196619;" d="M172.4,121.5c4.5,9.9,2.2,20,2.2,20s-18.8-12.2-23.3-22.1s-1.2-20.8-1.2-20.8
		S167.9,111.6,172.4,121.5z"/>
	<path style="fill:#196619;" d="M123.8,159.8c7.2,8.5,7.8,19.1,7.8,19.1s-21.9-6.7-29.1-15.2s-7-20.1-7-20.1
		S116.6,151.3,123.8,159.8z"/>
	<path style="fill:#196619;" d="M142.4,251.6c13.1,1.7,22.1,10.5,22.1,10.5s-24.6,11.6-37.7,9.9s-22.2-12.1-22.2-12.1
		S129.3,249.9,142.4,251.6z"/>
	<path style="fill:#196619;" d="M243,111.5c0.5,13,8.3,22.6,8.3,22.6s13.6-23,13.1-36s-9.8-22.8-9.8-22.8S242.6,98.5,243,111.5z"/>
</g>
<g>
	<path style="fill:#188C18;" d="M378.2,166.8c-8.4,10.8-20.9,14.1-20.9,14.1s2.6-27.9,11-38.7s22.4-13.4,22.4-13.4
		S386.6,156,378.2,166.8z"/>
	<path style="fill:#188C18;" d="M358,135c-4.3,8.5-12.4,12.6-12.4,12.6s-2.1-19.5,2.2-28c4.3-8.5,13.5-12.3,13.5-12.3
		S362.3,126.4,358,135z"/>
</g>
<path style="fill:#196619;" d="M179.6,199c8.9,11.8,8.9,26,8.9,26S160,214.4,151,202.5c-8.9-11.8-7.7-27.3-7.7-27.3
	S170.7,187.1,179.6,199z"/>
<path style="fill:#2EAA2E;" d="M426.7,205.9c4.2-6.2,11-8.5,11-8.5s-0.5,15.4-4.7,21.6c-4.2,6.2-11.8,8.1-11.8,8.1
	S422.5,212.1,426.7,205.9z"/>
<path style="fill:#196619;" d="M97.1,201.2c13.8,5.5,21.1,17.6,21.1,17.6s-29.9,5.7-43.7,0.2s-20.8-19.3-20.8-19.3
	S83.4,195.7,97.1,201.2z"/>
<g>
	<path style="fill:#2EAA2E;" d="M80.7,176.1c-4.6-6-4.6-13.1-4.6-13.1s14.5,5.2,19,11.2c4.6,5.9,4,13.7,4,13.7S85.3,182,80.7,176.1z
		"/>
	<path style="fill:#2EAA2E;" d="M82.1,290.2c-11.9,1.4-21.7-4.3-21.7-4.3s19-15.6,30.9-17s22.2,5.7,22.2,5.7S94,288.8,82.1,290.2z"
		/>
</g>
<path style="fill:#196619;" d="M75.1,250.5c10.5,1.2,17.7,8,17.7,8s-19.4,9.6-29.9,8.4S45,257.6,45,257.6S64.6,249.4,75.1,250.5z"/>
<g>
	<path style="fill:#2EAA2E;" d="M68.9,226.9c6.8,3.2,10.1,9.5,10.1,9.5s-15.3,2-22.1-1.2S47,224.9,47,224.9S62.1,223.7,68.9,226.9z"
		/>
	<path style="fill:#2EAA2E;" d="M231.2,253.8c0.4,9.8-5,17.5-5,17.5s-11.5-16.6-11.9-26.5c-0.4-9.8,6.1-17.8,6.1-17.8
		S230.8,243.9,231.2,253.8z"/>
</g>
<path style="fill:#196619;" d="M242.6,273.9c-6.6,0.9-12.2-2.1-12.2-2.1s10.4-9,17-9.9c6.6-0.9,12.4,2.9,12.4,2.9
	S249.2,272.9,242.6,273.9z"/>
<path style="fill:#2EAA2E;" d="M163.3,282.2c7-2.6,13.9-0.5,13.9-0.5s-9.3,12.3-16.3,14.9s-14.3-0.2-14.3-0.2
	S156.3,284.9,163.3,282.2z"/>
<g>
</g>
<g>
</g>
<g>
</g>
<g>
</g>
<g>
</g>
<g>
</g>
<g>
</g>
<g>
</g>
<g>
</g>
<g>
</g>
<g>
</g>
<g>
</g>
<g>
</g>
<g>
</g>
<g>
</g>
</svg>
